G04 EAGLE Gerber X2 export*
%TF.Part,Single*%
%TF.FileFunction,Other,Solder side*%
%TF.FilePolarity,Positive*%
%TF.GenerationSoftware,Autodesk,EAGLE,8.6.0*%
%TF.CreationDate,2019-04-27T20:12:32Z*%
G75*
%MOMM*%
%FSLAX34Y34*%
%LPD*%
%AMOC8*
5,1,8,0,0,1.08239X$1,22.5*%
G01*
%ADD10C,1.524000*%
%ADD11C,1.879600*%
%ADD12R,1.320800X1.320800*%
%ADD13C,1.320800*%
%ADD14C,0.756400*%
%ADD15C,0.609600*%
%ADD16C,0.304800*%
%ADD17C,0.406400*%

G36*
X988342Y10164D02*
X988342Y10164D01*
X988368Y10162D01*
X988515Y10184D01*
X988662Y10201D01*
X988687Y10209D01*
X988713Y10213D01*
X988851Y10268D01*
X988990Y10318D01*
X989012Y10332D01*
X989037Y10342D01*
X989158Y10427D01*
X989283Y10507D01*
X989301Y10526D01*
X989323Y10541D01*
X989422Y10651D01*
X989525Y10758D01*
X989539Y10780D01*
X989556Y10800D01*
X989628Y10930D01*
X989704Y11057D01*
X989712Y11082D01*
X989725Y11105D01*
X989765Y11248D01*
X989810Y11389D01*
X989812Y11415D01*
X989820Y11440D01*
X989839Y11684D01*
X989839Y738316D01*
X989838Y738325D01*
X989838Y738326D01*
X989837Y738335D01*
X989836Y738342D01*
X989838Y738368D01*
X989816Y738515D01*
X989799Y738662D01*
X989791Y738687D01*
X989787Y738713D01*
X989732Y738851D01*
X989682Y738990D01*
X989668Y739012D01*
X989658Y739037D01*
X989573Y739158D01*
X989493Y739283D01*
X989474Y739301D01*
X989459Y739323D01*
X989349Y739422D01*
X989242Y739525D01*
X989220Y739539D01*
X989200Y739556D01*
X989070Y739628D01*
X988943Y739704D01*
X988918Y739712D01*
X988895Y739725D01*
X988752Y739765D01*
X988611Y739810D01*
X988585Y739812D01*
X988560Y739820D01*
X988316Y739839D01*
X11684Y739839D01*
X11658Y739836D01*
X11632Y739838D01*
X11485Y739816D01*
X11338Y739799D01*
X11313Y739791D01*
X11287Y739787D01*
X11149Y739732D01*
X11010Y739682D01*
X10988Y739668D01*
X10963Y739658D01*
X10842Y739573D01*
X10717Y739493D01*
X10699Y739474D01*
X10677Y739459D01*
X10578Y739349D01*
X10475Y739242D01*
X10461Y739220D01*
X10444Y739200D01*
X10372Y739070D01*
X10296Y738943D01*
X10288Y738918D01*
X10275Y738895D01*
X10235Y738752D01*
X10190Y738611D01*
X10188Y738585D01*
X10180Y738560D01*
X10161Y738316D01*
X10161Y11684D01*
X10164Y11658D01*
X10162Y11632D01*
X10184Y11485D01*
X10201Y11338D01*
X10209Y11313D01*
X10213Y11287D01*
X10268Y11149D01*
X10318Y11010D01*
X10332Y10988D01*
X10342Y10963D01*
X10427Y10842D01*
X10507Y10717D01*
X10526Y10699D01*
X10541Y10677D01*
X10651Y10578D01*
X10758Y10475D01*
X10780Y10461D01*
X10800Y10444D01*
X10930Y10372D01*
X11057Y10296D01*
X11082Y10288D01*
X11105Y10275D01*
X11248Y10235D01*
X11389Y10190D01*
X11415Y10188D01*
X11440Y10180D01*
X11684Y10161D01*
X988316Y10161D01*
X988342Y10164D01*
G37*
%LPC*%
G36*
X416927Y395477D02*
X416927Y395477D01*
X412913Y397140D01*
X409840Y400213D01*
X408177Y404227D01*
X408177Y404496D01*
X408172Y404546D01*
X408174Y404596D01*
X408152Y404719D01*
X408137Y404842D01*
X408120Y404889D01*
X408111Y404939D01*
X408062Y405053D01*
X408020Y405170D01*
X407993Y405213D01*
X407973Y405259D01*
X407898Y405359D01*
X407831Y405463D01*
X407795Y405498D01*
X407765Y405538D01*
X407670Y405619D01*
X407580Y405705D01*
X407537Y405731D01*
X407499Y405764D01*
X407388Y405820D01*
X407281Y405884D01*
X407233Y405899D01*
X407188Y405922D01*
X407068Y405952D01*
X406949Y405990D01*
X406899Y405994D01*
X406850Y406006D01*
X406726Y406008D01*
X406602Y406018D01*
X406552Y406011D01*
X406502Y406012D01*
X406380Y405985D01*
X406257Y405967D01*
X406210Y405948D01*
X406161Y405937D01*
X406049Y405884D01*
X405933Y405838D01*
X405892Y405809D01*
X405846Y405787D01*
X405749Y405710D01*
X405647Y405639D01*
X405613Y405602D01*
X405574Y405570D01*
X405497Y405472D01*
X405414Y405380D01*
X405389Y405336D01*
X405358Y405297D01*
X405247Y405079D01*
X404549Y403394D01*
X403056Y401901D01*
X401106Y401093D01*
X398994Y401093D01*
X397044Y401901D01*
X395551Y403394D01*
X394743Y405344D01*
X394743Y407456D01*
X395551Y409406D01*
X396047Y409902D01*
X396126Y410001D01*
X396210Y410095D01*
X396234Y410137D01*
X396264Y410175D01*
X396318Y410289D01*
X396379Y410400D01*
X396392Y410446D01*
X396413Y410490D01*
X396439Y410613D01*
X396474Y410735D01*
X396479Y410796D01*
X396486Y410831D01*
X396485Y410879D01*
X396493Y410979D01*
X396493Y439623D01*
X425213Y468343D01*
X425275Y468421D01*
X425345Y468494D01*
X425383Y468558D01*
X425430Y468616D01*
X425472Y468707D01*
X425524Y468793D01*
X425547Y468864D01*
X425578Y468931D01*
X425600Y469029D01*
X425630Y469125D01*
X425636Y469199D01*
X425652Y469272D01*
X425650Y469372D01*
X425658Y469472D01*
X425647Y469546D01*
X425646Y469620D01*
X425621Y469717D01*
X425607Y469817D01*
X425579Y469886D01*
X425561Y469958D01*
X425515Y470048D01*
X425478Y470141D01*
X425435Y470202D01*
X425401Y470268D01*
X425336Y470345D01*
X425279Y470427D01*
X425224Y470477D01*
X425175Y470533D01*
X425095Y470593D01*
X425020Y470660D01*
X424955Y470696D01*
X424895Y470741D01*
X424803Y470780D01*
X424715Y470829D01*
X424643Y470849D01*
X424575Y470879D01*
X424532Y470886D01*
X422444Y471751D01*
X420951Y473244D01*
X420507Y474316D01*
X420458Y474403D01*
X420419Y474495D01*
X420374Y474555D01*
X420338Y474620D01*
X420270Y474695D01*
X420211Y474775D01*
X420154Y474823D01*
X420104Y474878D01*
X420021Y474935D01*
X419945Y475000D01*
X419878Y475034D01*
X419817Y475077D01*
X419724Y475113D01*
X419634Y475159D01*
X419562Y475177D01*
X419493Y475204D01*
X419394Y475219D01*
X419296Y475243D01*
X419222Y475244D01*
X419148Y475255D01*
X419048Y475247D01*
X418948Y475248D01*
X418875Y475232D01*
X418801Y475226D01*
X418705Y475195D01*
X418607Y475174D01*
X418540Y475142D01*
X418469Y475119D01*
X418383Y475067D01*
X418292Y475024D01*
X418234Y474978D01*
X418171Y474940D01*
X418098Y474869D01*
X418020Y474807D01*
X417974Y474749D01*
X417921Y474697D01*
X417866Y474612D01*
X417804Y474533D01*
X417758Y474444D01*
X417732Y474403D01*
X417720Y474370D01*
X417693Y474316D01*
X417249Y473244D01*
X415756Y471751D01*
X413806Y470943D01*
X411694Y470943D01*
X409744Y471751D01*
X408251Y473244D01*
X407443Y475194D01*
X407443Y477306D01*
X408251Y479256D01*
X409744Y480749D01*
X411694Y481557D01*
X413114Y481557D01*
X413240Y481571D01*
X413366Y481578D01*
X413412Y481591D01*
X413460Y481597D01*
X413579Y481639D01*
X413701Y481674D01*
X413743Y481698D01*
X413789Y481714D01*
X413895Y481783D01*
X414005Y481844D01*
X414051Y481884D01*
X414081Y481903D01*
X414115Y481938D01*
X414191Y482003D01*
X434340Y502151D01*
X434356Y502172D01*
X434376Y502189D01*
X434464Y502308D01*
X434556Y502424D01*
X434568Y502448D01*
X434583Y502469D01*
X434642Y502605D01*
X434705Y502739D01*
X434711Y502765D01*
X434721Y502789D01*
X434748Y502936D01*
X434779Y503080D01*
X434778Y503106D01*
X434783Y503132D01*
X434775Y503281D01*
X434773Y503429D01*
X434766Y503454D01*
X434765Y503480D01*
X434724Y503622D01*
X434688Y503767D01*
X434676Y503790D01*
X434668Y503815D01*
X434596Y503944D01*
X434528Y504076D01*
X434511Y504096D01*
X434498Y504119D01*
X434340Y504305D01*
X433651Y504994D01*
X432843Y506944D01*
X432843Y509056D01*
X433651Y511006D01*
X435144Y512499D01*
X437094Y513307D01*
X439206Y513307D01*
X441156Y512499D01*
X442649Y511006D01*
X442861Y510494D01*
X442934Y510363D01*
X443003Y510229D01*
X443018Y510211D01*
X443030Y510190D01*
X443131Y510078D01*
X443229Y509964D01*
X443248Y509949D01*
X443264Y509931D01*
X443388Y509846D01*
X443509Y509757D01*
X443531Y509747D01*
X443551Y509733D01*
X443691Y509678D01*
X443829Y509619D01*
X443853Y509614D01*
X443875Y509605D01*
X444024Y509584D01*
X444172Y509557D01*
X444196Y509558D01*
X444220Y509555D01*
X444370Y509567D01*
X444520Y509575D01*
X444543Y509582D01*
X444567Y509584D01*
X444710Y509630D01*
X444855Y509671D01*
X444876Y509683D01*
X444899Y509691D01*
X445027Y509768D01*
X445159Y509842D01*
X445181Y509860D01*
X445198Y509870D01*
X445231Y509903D01*
X445345Y510000D01*
X446991Y511646D01*
X448942Y512454D01*
X451053Y512454D01*
X453004Y511646D01*
X454496Y510154D01*
X455304Y508203D01*
X455304Y506092D01*
X454496Y504141D01*
X453492Y503138D01*
X453414Y503039D01*
X453329Y502945D01*
X453306Y502902D01*
X453276Y502865D01*
X453222Y502750D01*
X453161Y502640D01*
X453147Y502593D01*
X453127Y502549D01*
X453100Y502426D01*
X453066Y502304D01*
X453061Y502243D01*
X453053Y502209D01*
X453054Y502161D01*
X453046Y502060D01*
X453046Y499854D01*
X453058Y499754D01*
X453059Y499653D01*
X453078Y499581D01*
X453086Y499507D01*
X453120Y499413D01*
X453144Y499315D01*
X453179Y499249D01*
X453204Y499179D01*
X453258Y499095D01*
X453304Y499006D01*
X453352Y498949D01*
X453393Y498887D01*
X453465Y498817D01*
X453530Y498740D01*
X453590Y498696D01*
X453643Y498644D01*
X453729Y498593D01*
X453810Y498533D01*
X453879Y498504D01*
X453942Y498465D01*
X454038Y498435D01*
X454130Y498395D01*
X454203Y498382D01*
X454274Y498359D01*
X454374Y498351D01*
X454473Y498333D01*
X454548Y498337D01*
X454622Y498331D01*
X454721Y498346D01*
X454821Y498351D01*
X454893Y498372D01*
X454966Y498383D01*
X455060Y498420D01*
X455156Y498448D01*
X455221Y498484D01*
X455290Y498512D01*
X455373Y498569D01*
X455460Y498618D01*
X455537Y498683D01*
X455576Y498711D01*
X455600Y498737D01*
X455647Y498777D01*
X464147Y507277D01*
X464226Y507376D01*
X464310Y507470D01*
X464334Y507512D01*
X464364Y507550D01*
X464418Y507664D01*
X464479Y507775D01*
X464492Y507822D01*
X464513Y507865D01*
X464539Y507989D01*
X464574Y508110D01*
X464579Y508171D01*
X464586Y508206D01*
X464585Y508254D01*
X464593Y508354D01*
X464593Y509056D01*
X465401Y511006D01*
X466894Y512499D01*
X468844Y513307D01*
X470956Y513307D01*
X472906Y512499D01*
X474399Y511006D01*
X475207Y509056D01*
X475207Y506944D01*
X474399Y504994D01*
X472906Y503501D01*
X470956Y502693D01*
X470254Y502693D01*
X470129Y502679D01*
X470002Y502672D01*
X469956Y502659D01*
X469908Y502653D01*
X469789Y502611D01*
X469668Y502576D01*
X469625Y502552D01*
X469580Y502536D01*
X469474Y502467D01*
X469363Y502406D01*
X469317Y502366D01*
X469287Y502347D01*
X469254Y502312D01*
X469177Y502247D01*
X404053Y437123D01*
X403974Y437024D01*
X403890Y436930D01*
X403866Y436888D01*
X403836Y436850D01*
X403782Y436736D01*
X403721Y436625D01*
X403708Y436578D01*
X403687Y436535D01*
X403661Y436411D01*
X403626Y436290D01*
X403621Y436229D01*
X403614Y436194D01*
X403615Y436146D01*
X403607Y436046D01*
X403607Y410979D01*
X403621Y410853D01*
X403628Y410727D01*
X403641Y410681D01*
X403647Y410633D01*
X403689Y410514D01*
X403724Y410392D01*
X403748Y410350D01*
X403764Y410305D01*
X403833Y410199D01*
X403894Y410088D01*
X403934Y410042D01*
X403953Y410012D01*
X403988Y409978D01*
X404053Y409902D01*
X404549Y409406D01*
X405247Y407721D01*
X405271Y407677D01*
X405288Y407630D01*
X405356Y407525D01*
X405416Y407417D01*
X405450Y407379D01*
X405477Y407337D01*
X405567Y407251D01*
X405650Y407158D01*
X405692Y407130D01*
X405728Y407095D01*
X405835Y407031D01*
X405937Y406960D01*
X405984Y406942D01*
X406027Y406916D01*
X406145Y406878D01*
X406261Y406832D01*
X406311Y406825D01*
X406359Y406810D01*
X406483Y406800D01*
X406606Y406782D01*
X406656Y406786D01*
X406706Y406782D01*
X406829Y406800D01*
X406953Y406810D01*
X407001Y406826D01*
X407051Y406833D01*
X407166Y406879D01*
X407285Y406918D01*
X407328Y406944D01*
X407375Y406962D01*
X407477Y407033D01*
X407583Y407097D01*
X407620Y407132D01*
X407661Y407161D01*
X407744Y407253D01*
X407833Y407340D01*
X407861Y407382D01*
X407894Y407420D01*
X407954Y407529D01*
X408022Y407633D01*
X408039Y407681D01*
X408063Y407725D01*
X408097Y407844D01*
X408138Y407962D01*
X408144Y408012D01*
X408158Y408060D01*
X408177Y408304D01*
X408177Y408573D01*
X409840Y412587D01*
X412913Y415660D01*
X416927Y417323D01*
X421273Y417323D01*
X425287Y415660D01*
X428360Y412587D01*
X430023Y408573D01*
X430023Y404227D01*
X428360Y400213D01*
X425287Y397140D01*
X421273Y395477D01*
X416927Y395477D01*
G37*
%LPD*%
%LPC*%
G36*
X721727Y192277D02*
X721727Y192277D01*
X717713Y193940D01*
X714640Y197013D01*
X712977Y201027D01*
X712977Y205373D01*
X714640Y209387D01*
X717713Y212460D01*
X721512Y214033D01*
X721604Y214085D01*
X721700Y214127D01*
X721756Y214169D01*
X721816Y214203D01*
X721894Y214273D01*
X721978Y214337D01*
X722023Y214390D01*
X722075Y214437D01*
X722135Y214524D01*
X722202Y214604D01*
X722233Y214666D01*
X722273Y214724D01*
X722311Y214822D01*
X722359Y214915D01*
X722375Y214983D01*
X722401Y215048D01*
X722416Y215152D01*
X722441Y215254D01*
X722441Y215324D01*
X722451Y215393D01*
X722443Y215498D01*
X722444Y215603D01*
X722428Y215670D01*
X722423Y215740D01*
X722390Y215840D01*
X722367Y215943D01*
X722337Y216005D01*
X722315Y216072D01*
X722261Y216162D01*
X722215Y216256D01*
X722172Y216310D01*
X722136Y216370D01*
X722062Y216446D01*
X721996Y216527D01*
X721942Y216570D01*
X721893Y216620D01*
X721804Y216677D01*
X721721Y216742D01*
X721658Y216771D01*
X721600Y216808D01*
X721500Y216844D01*
X721405Y216888D01*
X721315Y216909D01*
X721271Y216925D01*
X721233Y216929D01*
X721167Y216945D01*
X721104Y216955D01*
X719317Y217536D01*
X717643Y218389D01*
X716122Y219494D01*
X714794Y220822D01*
X713689Y222343D01*
X712836Y224017D01*
X712255Y225804D01*
X712215Y226061D01*
X722884Y226061D01*
X722910Y226064D01*
X722936Y226062D01*
X723083Y226084D01*
X723230Y226101D01*
X723255Y226109D01*
X723281Y226113D01*
X723418Y226168D01*
X723558Y226218D01*
X723580Y226232D01*
X723605Y226242D01*
X723726Y226327D01*
X723851Y226407D01*
X723869Y226426D01*
X723891Y226441D01*
X723905Y226457D01*
X723990Y226375D01*
X724013Y226361D01*
X724032Y226344D01*
X724162Y226272D01*
X724289Y226196D01*
X724314Y226188D01*
X724337Y226175D01*
X724480Y226135D01*
X724621Y226090D01*
X724647Y226087D01*
X724672Y226080D01*
X724916Y226061D01*
X735585Y226061D01*
X735545Y225804D01*
X734964Y224017D01*
X734111Y222343D01*
X733006Y220822D01*
X731678Y219494D01*
X730157Y218389D01*
X728483Y217536D01*
X726696Y216955D01*
X726633Y216945D01*
X726532Y216917D01*
X726428Y216898D01*
X726364Y216870D01*
X726297Y216852D01*
X726205Y216801D01*
X726108Y216759D01*
X726053Y216718D01*
X725992Y216684D01*
X725913Y216614D01*
X725829Y216551D01*
X725784Y216498D01*
X725732Y216452D01*
X725671Y216366D01*
X725603Y216285D01*
X725572Y216224D01*
X725532Y216167D01*
X725493Y216069D01*
X725445Y215975D01*
X725428Y215908D01*
X725402Y215843D01*
X725386Y215739D01*
X725360Y215637D01*
X725359Y215568D01*
X725349Y215499D01*
X725357Y215394D01*
X725355Y215288D01*
X725370Y215221D01*
X725376Y215151D01*
X725407Y215051D01*
X725430Y214948D01*
X725460Y214885D01*
X725480Y214819D01*
X725534Y214728D01*
X725579Y214633D01*
X725623Y214579D01*
X725658Y214519D01*
X725731Y214443D01*
X725797Y214361D01*
X725851Y214318D01*
X725899Y214268D01*
X725988Y214210D01*
X726070Y214145D01*
X726153Y214103D01*
X726192Y214078D01*
X726228Y214064D01*
X726288Y214033D01*
X730087Y212460D01*
X733160Y209387D01*
X733439Y208713D01*
X733476Y208646D01*
X733504Y208575D01*
X733561Y208494D01*
X733608Y208408D01*
X733660Y208352D01*
X733703Y208289D01*
X733776Y208223D01*
X733843Y208150D01*
X733905Y208107D01*
X733962Y208056D01*
X734048Y208008D01*
X734129Y207952D01*
X734200Y207924D01*
X734267Y207887D01*
X734362Y207860D01*
X734453Y207824D01*
X734529Y207813D01*
X734603Y207792D01*
X734751Y207780D01*
X734798Y207773D01*
X734817Y207775D01*
X734846Y207773D01*
X790619Y207773D01*
X790621Y207773D01*
X790623Y207773D01*
X790794Y207793D01*
X790966Y207813D01*
X790968Y207813D01*
X790970Y207814D01*
X791202Y207889D01*
X792694Y208507D01*
X794806Y208507D01*
X796756Y207699D01*
X798249Y206206D01*
X799057Y204256D01*
X799057Y202144D01*
X798249Y200194D01*
X796756Y198701D01*
X794806Y197893D01*
X792694Y197893D01*
X791202Y198511D01*
X791200Y198512D01*
X791199Y198513D01*
X791031Y198560D01*
X790867Y198607D01*
X790865Y198607D01*
X790863Y198608D01*
X790619Y198627D01*
X734846Y198627D01*
X734771Y198619D01*
X734694Y198620D01*
X734598Y198599D01*
X734500Y198587D01*
X734428Y198562D01*
X734354Y198545D01*
X734265Y198503D01*
X734172Y198470D01*
X734108Y198428D01*
X734039Y198396D01*
X733962Y198334D01*
X733879Y198281D01*
X733826Y198226D01*
X733766Y198178D01*
X733706Y198101D01*
X733637Y198030D01*
X733598Y197965D01*
X733551Y197905D01*
X733482Y197772D01*
X733458Y197731D01*
X733452Y197713D01*
X733439Y197687D01*
X733160Y197013D01*
X730087Y193940D01*
X726073Y192277D01*
X721727Y192277D01*
G37*
%LPD*%
%LPC*%
G36*
X599439Y405384D02*
X599439Y405384D01*
X599436Y405410D01*
X599438Y405436D01*
X599416Y405583D01*
X599399Y405730D01*
X599391Y405755D01*
X599387Y405781D01*
X599332Y405918D01*
X599282Y406058D01*
X599268Y406080D01*
X599258Y406105D01*
X599173Y406226D01*
X599093Y406351D01*
X599074Y406369D01*
X599059Y406391D01*
X599043Y406405D01*
X599125Y406490D01*
X599139Y406513D01*
X599156Y406532D01*
X599228Y406662D01*
X599304Y406789D01*
X599312Y406814D01*
X599325Y406837D01*
X599365Y406980D01*
X599410Y407121D01*
X599412Y407147D01*
X599420Y407172D01*
X599439Y407416D01*
X599439Y418085D01*
X599696Y418045D01*
X601483Y417464D01*
X603157Y416611D01*
X604678Y415506D01*
X606006Y414178D01*
X607111Y412657D01*
X607964Y410983D01*
X608545Y409196D01*
X608555Y409133D01*
X608583Y409031D01*
X608602Y408928D01*
X608630Y408864D01*
X608648Y408797D01*
X608699Y408705D01*
X608741Y408608D01*
X608782Y408552D01*
X608816Y408491D01*
X608886Y408413D01*
X608949Y408329D01*
X609002Y408284D01*
X609048Y408232D01*
X609134Y408171D01*
X609215Y408103D01*
X609277Y408072D01*
X609334Y408032D01*
X609431Y407993D01*
X609525Y407945D01*
X609592Y407928D01*
X609657Y407902D01*
X609761Y407886D01*
X609863Y407860D01*
X609933Y407859D01*
X610001Y407849D01*
X610106Y407857D01*
X610212Y407855D01*
X610280Y407870D01*
X610349Y407876D01*
X610449Y407907D01*
X610552Y407930D01*
X610615Y407960D01*
X610681Y407981D01*
X610772Y408034D01*
X610867Y408079D01*
X610921Y408123D01*
X610981Y408158D01*
X611057Y408231D01*
X611139Y408297D01*
X611182Y408351D01*
X611233Y408400D01*
X611290Y408488D01*
X611355Y408570D01*
X611397Y408653D01*
X611423Y408692D01*
X611436Y408728D01*
X611467Y408788D01*
X613040Y412587D01*
X616113Y415660D01*
X620127Y417323D01*
X624473Y417323D01*
X628487Y415660D01*
X631560Y412587D01*
X633223Y408573D01*
X633223Y404227D01*
X631560Y400213D01*
X628487Y397140D01*
X624473Y395477D01*
X620127Y395477D01*
X616113Y397140D01*
X613040Y400213D01*
X611467Y404012D01*
X611415Y404104D01*
X611373Y404200D01*
X611331Y404256D01*
X611297Y404316D01*
X611226Y404394D01*
X611163Y404478D01*
X611110Y404523D01*
X611063Y404575D01*
X610976Y404635D01*
X610896Y404702D01*
X610834Y404733D01*
X610776Y404773D01*
X610678Y404811D01*
X610585Y404859D01*
X610517Y404875D01*
X610452Y404901D01*
X610348Y404916D01*
X610246Y404941D01*
X610176Y404941D01*
X610107Y404951D01*
X610002Y404943D01*
X609897Y404944D01*
X609829Y404928D01*
X609760Y404923D01*
X609660Y404890D01*
X609557Y404867D01*
X609495Y404837D01*
X609428Y404815D01*
X609338Y404761D01*
X609244Y404715D01*
X609189Y404672D01*
X609130Y404636D01*
X609054Y404562D01*
X608973Y404496D01*
X608930Y404442D01*
X608880Y404393D01*
X608823Y404304D01*
X608758Y404221D01*
X608729Y404158D01*
X608692Y404100D01*
X608656Y404001D01*
X608612Y403905D01*
X608590Y403815D01*
X608575Y403771D01*
X608571Y403733D01*
X608555Y403667D01*
X608545Y403604D01*
X607964Y401817D01*
X607111Y400143D01*
X606006Y398622D01*
X604678Y397294D01*
X603157Y396189D01*
X601483Y395336D01*
X599696Y394755D01*
X599439Y394715D01*
X599439Y405384D01*
G37*
%LPD*%
%LPC*%
G36*
X726439Y303784D02*
X726439Y303784D01*
X726436Y303810D01*
X726438Y303836D01*
X726416Y303983D01*
X726399Y304130D01*
X726391Y304155D01*
X726387Y304181D01*
X726332Y304318D01*
X726282Y304458D01*
X726268Y304480D01*
X726258Y304505D01*
X726173Y304626D01*
X726093Y304751D01*
X726074Y304769D01*
X726059Y304791D01*
X726043Y304805D01*
X726125Y304890D01*
X726139Y304913D01*
X726156Y304932D01*
X726228Y305062D01*
X726304Y305189D01*
X726312Y305214D01*
X726325Y305237D01*
X726365Y305380D01*
X726410Y305521D01*
X726412Y305547D01*
X726420Y305572D01*
X726439Y305816D01*
X726439Y316485D01*
X726696Y316445D01*
X728483Y315864D01*
X730157Y315011D01*
X731678Y313906D01*
X733006Y312578D01*
X734111Y311057D01*
X734964Y309383D01*
X735545Y307596D01*
X735555Y307533D01*
X735583Y307431D01*
X735602Y307328D01*
X735630Y307264D01*
X735648Y307197D01*
X735699Y307105D01*
X735741Y307008D01*
X735782Y306952D01*
X735816Y306891D01*
X735886Y306813D01*
X735949Y306729D01*
X736002Y306684D01*
X736048Y306632D01*
X736134Y306571D01*
X736215Y306503D01*
X736277Y306472D01*
X736334Y306432D01*
X736431Y306393D01*
X736525Y306345D01*
X736592Y306328D01*
X736657Y306302D01*
X736761Y306286D01*
X736863Y306260D01*
X736933Y306259D01*
X737001Y306249D01*
X737106Y306257D01*
X737212Y306255D01*
X737280Y306270D01*
X737349Y306276D01*
X737449Y306307D01*
X737552Y306330D01*
X737615Y306360D01*
X737681Y306381D01*
X737772Y306434D01*
X737867Y306479D01*
X737921Y306523D01*
X737981Y306558D01*
X738057Y306631D01*
X738139Y306697D01*
X738182Y306751D01*
X738233Y306800D01*
X738290Y306888D01*
X738355Y306970D01*
X738397Y307053D01*
X738423Y307092D01*
X738436Y307128D01*
X738467Y307188D01*
X740040Y310987D01*
X743113Y314060D01*
X747127Y315723D01*
X751473Y315723D01*
X755487Y314060D01*
X758560Y310987D01*
X760223Y306973D01*
X760223Y302627D01*
X758560Y298613D01*
X755487Y295540D01*
X751473Y293877D01*
X747127Y293877D01*
X743113Y295540D01*
X740040Y298613D01*
X738467Y302412D01*
X738415Y302504D01*
X738373Y302600D01*
X738331Y302656D01*
X738297Y302716D01*
X738226Y302794D01*
X738163Y302878D01*
X738110Y302923D01*
X738063Y302975D01*
X737976Y303035D01*
X737896Y303102D01*
X737834Y303133D01*
X737776Y303173D01*
X737678Y303211D01*
X737585Y303259D01*
X737517Y303275D01*
X737452Y303301D01*
X737348Y303316D01*
X737246Y303341D01*
X737176Y303341D01*
X737107Y303351D01*
X737002Y303343D01*
X736897Y303344D01*
X736829Y303328D01*
X736760Y303323D01*
X736660Y303290D01*
X736557Y303267D01*
X736495Y303237D01*
X736428Y303215D01*
X736338Y303161D01*
X736244Y303115D01*
X736189Y303072D01*
X736130Y303036D01*
X736054Y302962D01*
X735973Y302896D01*
X735930Y302842D01*
X735880Y302793D01*
X735823Y302704D01*
X735758Y302621D01*
X735729Y302558D01*
X735692Y302500D01*
X735656Y302401D01*
X735612Y302305D01*
X735590Y302215D01*
X735575Y302171D01*
X735571Y302133D01*
X735555Y302067D01*
X735545Y302004D01*
X734964Y300217D01*
X734111Y298543D01*
X733006Y297022D01*
X731678Y295694D01*
X730157Y294589D01*
X728483Y293736D01*
X726696Y293155D01*
X726439Y293115D01*
X726439Y303784D01*
G37*
%LPD*%
%LPC*%
G36*
X231139Y176784D02*
X231139Y176784D01*
X231136Y176810D01*
X231138Y176836D01*
X231116Y176983D01*
X231099Y177130D01*
X231091Y177155D01*
X231087Y177181D01*
X231032Y177318D01*
X230982Y177458D01*
X230968Y177480D01*
X230958Y177505D01*
X230873Y177626D01*
X230793Y177751D01*
X230774Y177769D01*
X230759Y177791D01*
X230743Y177805D01*
X230825Y177890D01*
X230839Y177913D01*
X230856Y177932D01*
X230928Y178062D01*
X231004Y178189D01*
X231012Y178214D01*
X231025Y178237D01*
X231065Y178380D01*
X231110Y178521D01*
X231112Y178547D01*
X231120Y178572D01*
X231139Y178816D01*
X231139Y189485D01*
X231396Y189445D01*
X233183Y188864D01*
X234857Y188011D01*
X236378Y186906D01*
X237706Y185578D01*
X238811Y184057D01*
X239664Y182383D01*
X240245Y180596D01*
X240255Y180533D01*
X240283Y180431D01*
X240302Y180328D01*
X240330Y180264D01*
X240348Y180197D01*
X240399Y180105D01*
X240441Y180008D01*
X240482Y179952D01*
X240516Y179891D01*
X240586Y179813D01*
X240649Y179728D01*
X240702Y179684D01*
X240748Y179632D01*
X240835Y179571D01*
X240915Y179503D01*
X240977Y179472D01*
X241034Y179432D01*
X241131Y179393D01*
X241225Y179345D01*
X241292Y179328D01*
X241357Y179302D01*
X241461Y179286D01*
X241563Y179260D01*
X241633Y179259D01*
X241701Y179249D01*
X241806Y179257D01*
X241912Y179255D01*
X241980Y179270D01*
X242049Y179276D01*
X242149Y179307D01*
X242252Y179330D01*
X242315Y179360D01*
X242381Y179381D01*
X242472Y179434D01*
X242567Y179479D01*
X242621Y179523D01*
X242681Y179558D01*
X242757Y179631D01*
X242839Y179697D01*
X242882Y179751D01*
X242933Y179800D01*
X242990Y179888D01*
X243055Y179970D01*
X243097Y180053D01*
X243123Y180092D01*
X243136Y180128D01*
X243167Y180188D01*
X244740Y183987D01*
X247813Y187060D01*
X251827Y188723D01*
X256173Y188723D01*
X260187Y187060D01*
X263260Y183987D01*
X264923Y179973D01*
X264923Y175627D01*
X263260Y171613D01*
X260187Y168540D01*
X256173Y166877D01*
X251827Y166877D01*
X247813Y168540D01*
X244740Y171613D01*
X243167Y175412D01*
X243115Y175504D01*
X243073Y175600D01*
X243031Y175656D01*
X242997Y175717D01*
X242926Y175794D01*
X242863Y175879D01*
X242810Y175923D01*
X242763Y175975D01*
X242677Y176034D01*
X242596Y176102D01*
X242533Y176133D01*
X242476Y176173D01*
X242379Y176211D01*
X242285Y176259D01*
X242217Y176275D01*
X242152Y176301D01*
X242048Y176316D01*
X241946Y176341D01*
X241876Y176341D01*
X241807Y176351D01*
X241702Y176343D01*
X241597Y176344D01*
X241529Y176328D01*
X241460Y176323D01*
X241360Y176290D01*
X241257Y176267D01*
X241195Y176237D01*
X241128Y176215D01*
X241038Y176161D01*
X240944Y176115D01*
X240889Y176072D01*
X240830Y176036D01*
X240754Y175962D01*
X240672Y175896D01*
X240630Y175842D01*
X240580Y175793D01*
X240523Y175704D01*
X240458Y175621D01*
X240429Y175558D01*
X240392Y175500D01*
X240356Y175400D01*
X240312Y175305D01*
X240291Y175215D01*
X240275Y175171D01*
X240271Y175133D01*
X240255Y175067D01*
X240245Y175004D01*
X239664Y173217D01*
X238811Y171543D01*
X237706Y170022D01*
X236378Y168694D01*
X234857Y167589D01*
X233183Y166736D01*
X231396Y166155D01*
X231139Y166115D01*
X231139Y176784D01*
G37*
%LPD*%
%LPC*%
G36*
X594104Y394755D02*
X594104Y394755D01*
X592317Y395336D01*
X590643Y396189D01*
X589122Y397294D01*
X587794Y398622D01*
X586689Y400143D01*
X585836Y401817D01*
X585255Y403604D01*
X585245Y403667D01*
X585217Y403769D01*
X585198Y403872D01*
X585170Y403936D01*
X585152Y404003D01*
X585101Y404095D01*
X585059Y404192D01*
X585018Y404248D01*
X584984Y404309D01*
X584914Y404387D01*
X584851Y404471D01*
X584798Y404516D01*
X584752Y404568D01*
X584666Y404629D01*
X584585Y404697D01*
X584523Y404728D01*
X584466Y404768D01*
X584369Y404807D01*
X584275Y404855D01*
X584208Y404872D01*
X584143Y404898D01*
X584039Y404914D01*
X583937Y404940D01*
X583867Y404941D01*
X583799Y404951D01*
X583694Y404943D01*
X583588Y404945D01*
X583520Y404930D01*
X583451Y404924D01*
X583351Y404893D01*
X583248Y404870D01*
X583185Y404840D01*
X583119Y404819D01*
X583028Y404766D01*
X582933Y404721D01*
X582879Y404677D01*
X582819Y404642D01*
X582743Y404569D01*
X582661Y404503D01*
X582618Y404449D01*
X582567Y404400D01*
X582510Y404312D01*
X582445Y404230D01*
X582403Y404147D01*
X582377Y404108D01*
X582364Y404072D01*
X582333Y404012D01*
X580760Y400213D01*
X577687Y397140D01*
X573673Y395477D01*
X569327Y395477D01*
X565313Y397140D01*
X562240Y400213D01*
X560577Y404227D01*
X560577Y408573D01*
X562240Y412587D01*
X565313Y415660D01*
X569327Y417323D01*
X573673Y417323D01*
X577687Y415660D01*
X580760Y412587D01*
X582333Y408788D01*
X582385Y408696D01*
X582427Y408600D01*
X582469Y408544D01*
X582503Y408484D01*
X582574Y408406D01*
X582637Y408322D01*
X582690Y408277D01*
X582737Y408225D01*
X582824Y408165D01*
X582904Y408098D01*
X582966Y408067D01*
X583024Y408027D01*
X583122Y407989D01*
X583215Y407941D01*
X583283Y407925D01*
X583348Y407899D01*
X583452Y407884D01*
X583554Y407859D01*
X583624Y407859D01*
X583693Y407849D01*
X583798Y407857D01*
X583903Y407856D01*
X583971Y407872D01*
X584040Y407877D01*
X584140Y407910D01*
X584243Y407933D01*
X584305Y407963D01*
X584372Y407985D01*
X584462Y408039D01*
X584556Y408085D01*
X584611Y408128D01*
X584670Y408164D01*
X584746Y408238D01*
X584827Y408304D01*
X584870Y408358D01*
X584920Y408407D01*
X584977Y408496D01*
X585042Y408579D01*
X585071Y408642D01*
X585108Y408700D01*
X585144Y408799D01*
X585188Y408895D01*
X585210Y408985D01*
X585225Y409029D01*
X585229Y409067D01*
X585245Y409133D01*
X585255Y409196D01*
X585836Y410983D01*
X586689Y412657D01*
X587794Y414178D01*
X589122Y415506D01*
X590643Y416611D01*
X592317Y417464D01*
X594104Y418045D01*
X594361Y418085D01*
X594361Y407416D01*
X594364Y407390D01*
X594362Y407364D01*
X594384Y407217D01*
X594401Y407070D01*
X594409Y407045D01*
X594413Y407019D01*
X594468Y406882D01*
X594518Y406742D01*
X594532Y406720D01*
X594542Y406695D01*
X594627Y406574D01*
X594707Y406449D01*
X594726Y406431D01*
X594741Y406409D01*
X594757Y406395D01*
X594675Y406310D01*
X594661Y406287D01*
X594644Y406268D01*
X594572Y406138D01*
X594496Y406011D01*
X594488Y405986D01*
X594475Y405963D01*
X594435Y405820D01*
X594390Y405679D01*
X594387Y405653D01*
X594380Y405628D01*
X594361Y405384D01*
X594361Y394715D01*
X594104Y394755D01*
G37*
%LPD*%
%LPC*%
G36*
X390904Y318555D02*
X390904Y318555D01*
X389117Y319136D01*
X387443Y319989D01*
X385922Y321094D01*
X384594Y322422D01*
X383489Y323943D01*
X382636Y325617D01*
X382055Y327404D01*
X382045Y327467D01*
X382017Y327569D01*
X381998Y327672D01*
X381970Y327736D01*
X381952Y327803D01*
X381901Y327895D01*
X381859Y327992D01*
X381818Y328048D01*
X381784Y328109D01*
X381714Y328187D01*
X381651Y328271D01*
X381598Y328316D01*
X381552Y328368D01*
X381466Y328429D01*
X381385Y328497D01*
X381323Y328528D01*
X381266Y328568D01*
X381169Y328607D01*
X381075Y328655D01*
X381008Y328672D01*
X380943Y328698D01*
X380839Y328714D01*
X380737Y328740D01*
X380667Y328741D01*
X380599Y328751D01*
X380494Y328743D01*
X380388Y328745D01*
X380320Y328730D01*
X380251Y328724D01*
X380151Y328693D01*
X380048Y328670D01*
X379985Y328640D01*
X379919Y328619D01*
X379828Y328566D01*
X379733Y328521D01*
X379679Y328477D01*
X379619Y328442D01*
X379543Y328369D01*
X379461Y328303D01*
X379418Y328249D01*
X379367Y328200D01*
X379310Y328112D01*
X379245Y328030D01*
X379203Y327947D01*
X379177Y327908D01*
X379164Y327872D01*
X379133Y327812D01*
X377560Y324013D01*
X374487Y320940D01*
X370473Y319277D01*
X366127Y319277D01*
X362113Y320940D01*
X359040Y324013D01*
X357377Y328027D01*
X357377Y332373D01*
X359040Y336387D01*
X362113Y339460D01*
X366127Y341123D01*
X370473Y341123D01*
X374487Y339460D01*
X377560Y336387D01*
X379133Y332588D01*
X379185Y332496D01*
X379227Y332400D01*
X379269Y332344D01*
X379303Y332284D01*
X379374Y332206D01*
X379437Y332122D01*
X379490Y332077D01*
X379537Y332025D01*
X379624Y331965D01*
X379704Y331898D01*
X379766Y331867D01*
X379824Y331827D01*
X379922Y331789D01*
X380015Y331741D01*
X380083Y331725D01*
X380148Y331699D01*
X380252Y331684D01*
X380354Y331659D01*
X380424Y331659D01*
X380493Y331649D01*
X380598Y331657D01*
X380703Y331656D01*
X380771Y331672D01*
X380840Y331677D01*
X380940Y331710D01*
X381043Y331733D01*
X381105Y331763D01*
X381172Y331785D01*
X381262Y331839D01*
X381356Y331885D01*
X381411Y331928D01*
X381470Y331964D01*
X381546Y332038D01*
X381627Y332104D01*
X381670Y332158D01*
X381720Y332207D01*
X381777Y332296D01*
X381842Y332379D01*
X381871Y332442D01*
X381908Y332500D01*
X381944Y332599D01*
X381988Y332695D01*
X382010Y332785D01*
X382025Y332829D01*
X382029Y332867D01*
X382045Y332933D01*
X382055Y332996D01*
X382636Y334783D01*
X383489Y336457D01*
X384594Y337978D01*
X385922Y339306D01*
X387442Y340411D01*
X389117Y341264D01*
X390904Y341845D01*
X391161Y341885D01*
X391161Y331216D01*
X391164Y331190D01*
X391162Y331164D01*
X391184Y331017D01*
X391201Y330870D01*
X391209Y330845D01*
X391213Y330819D01*
X391268Y330682D01*
X391318Y330542D01*
X391332Y330520D01*
X391342Y330495D01*
X391427Y330374D01*
X391507Y330249D01*
X391526Y330231D01*
X391541Y330209D01*
X391557Y330195D01*
X391475Y330110D01*
X391461Y330087D01*
X391444Y330068D01*
X391372Y329938D01*
X391296Y329811D01*
X391288Y329786D01*
X391275Y329763D01*
X391235Y329620D01*
X391190Y329479D01*
X391187Y329453D01*
X391180Y329428D01*
X391161Y329184D01*
X391161Y318515D01*
X390904Y318555D01*
G37*
%LPD*%
%LPC*%
G36*
X493127Y395477D02*
X493127Y395477D01*
X489113Y397140D01*
X486040Y400213D01*
X484377Y404227D01*
X484377Y408573D01*
X486040Y412587D01*
X489113Y415660D01*
X493127Y417323D01*
X497473Y417323D01*
X501487Y415660D01*
X504560Y412587D01*
X506223Y408573D01*
X506223Y404227D01*
X504560Y400213D01*
X501487Y397140D01*
X497473Y395477D01*
X493127Y395477D01*
G37*
%LPD*%
%LPC*%
G36*
X467727Y395477D02*
X467727Y395477D01*
X463713Y397140D01*
X460640Y400213D01*
X458977Y404227D01*
X458977Y408573D01*
X460640Y412587D01*
X463713Y415660D01*
X467727Y417323D01*
X472073Y417323D01*
X476087Y415660D01*
X479160Y412587D01*
X480823Y408573D01*
X480823Y404227D01*
X479160Y400213D01*
X476087Y397140D01*
X472073Y395477D01*
X467727Y395477D01*
G37*
%LPD*%
%LPC*%
G36*
X670927Y395477D02*
X670927Y395477D01*
X666913Y397140D01*
X663840Y400213D01*
X662177Y404227D01*
X662177Y408573D01*
X663840Y412587D01*
X666913Y415660D01*
X670927Y417323D01*
X675273Y417323D01*
X679287Y415660D01*
X682360Y412587D01*
X684023Y408573D01*
X684023Y404227D01*
X682360Y400213D01*
X679287Y397140D01*
X675273Y395477D01*
X670927Y395477D01*
G37*
%LPD*%
%LPC*%
G36*
X645527Y395477D02*
X645527Y395477D01*
X641513Y397140D01*
X638440Y400213D01*
X636777Y404227D01*
X636777Y408573D01*
X638440Y412587D01*
X641513Y415660D01*
X645527Y417323D01*
X649873Y417323D01*
X653887Y415660D01*
X656960Y412587D01*
X658623Y408573D01*
X658623Y404227D01*
X656960Y400213D01*
X653887Y397140D01*
X649873Y395477D01*
X645527Y395477D01*
G37*
%LPD*%
%LPC*%
G36*
X543927Y395477D02*
X543927Y395477D01*
X539913Y397140D01*
X536840Y400213D01*
X535177Y404227D01*
X535177Y408573D01*
X536840Y412587D01*
X539913Y415660D01*
X543927Y417323D01*
X548273Y417323D01*
X552287Y415660D01*
X555360Y412587D01*
X557023Y408573D01*
X557023Y404227D01*
X555360Y400213D01*
X552287Y397140D01*
X548273Y395477D01*
X543927Y395477D01*
G37*
%LPD*%
%LPC*%
G36*
X518527Y395477D02*
X518527Y395477D01*
X514513Y397140D01*
X511440Y400213D01*
X509777Y404227D01*
X509777Y408573D01*
X511440Y412587D01*
X514513Y415660D01*
X518527Y417323D01*
X522873Y417323D01*
X526887Y415660D01*
X529960Y412587D01*
X531623Y408573D01*
X531623Y404227D01*
X529960Y400213D01*
X526887Y397140D01*
X522873Y395477D01*
X518527Y395477D01*
G37*
%LPD*%
%LPC*%
G36*
X442327Y395477D02*
X442327Y395477D01*
X438313Y397140D01*
X435240Y400213D01*
X433577Y404227D01*
X433577Y408573D01*
X435240Y412587D01*
X438313Y415660D01*
X442327Y417323D01*
X446673Y417323D01*
X450687Y415660D01*
X453760Y412587D01*
X455423Y408573D01*
X455423Y404227D01*
X453760Y400213D01*
X450687Y397140D01*
X446673Y395477D01*
X442327Y395477D01*
G37*
%LPD*%
%LPC*%
G36*
X391881Y143255D02*
X391881Y143255D01*
X388520Y144648D01*
X385948Y147220D01*
X384555Y150581D01*
X384555Y154219D01*
X385948Y157580D01*
X388520Y160152D01*
X391881Y161545D01*
X395519Y161545D01*
X398880Y160152D01*
X401452Y157580D01*
X402845Y154219D01*
X402845Y150581D01*
X401452Y147220D01*
X398880Y144648D01*
X395519Y143255D01*
X391881Y143255D01*
G37*
%LPD*%
%LPC*%
G36*
X696681Y143255D02*
X696681Y143255D01*
X693320Y144648D01*
X690748Y147220D01*
X689355Y150581D01*
X689355Y154219D01*
X690748Y157580D01*
X693320Y160152D01*
X696681Y161545D01*
X700319Y161545D01*
X703680Y160152D01*
X706252Y157580D01*
X707645Y154219D01*
X707645Y150581D01*
X706252Y147220D01*
X703680Y144648D01*
X700319Y143255D01*
X696681Y143255D01*
G37*
%LPD*%
%LPC*%
G36*
X671281Y143255D02*
X671281Y143255D01*
X667920Y144648D01*
X665348Y147220D01*
X663955Y150581D01*
X663955Y154219D01*
X665348Y157580D01*
X667920Y160152D01*
X671281Y161545D01*
X674919Y161545D01*
X678280Y160152D01*
X680852Y157580D01*
X682245Y154219D01*
X682245Y150581D01*
X680852Y147220D01*
X678280Y144648D01*
X674919Y143255D01*
X671281Y143255D01*
G37*
%LPD*%
%LPC*%
G36*
X645881Y143255D02*
X645881Y143255D01*
X642520Y144648D01*
X639948Y147220D01*
X638555Y150581D01*
X638555Y154219D01*
X639948Y157580D01*
X642520Y160152D01*
X645881Y161545D01*
X649519Y161545D01*
X652880Y160152D01*
X655452Y157580D01*
X656845Y154219D01*
X656845Y150581D01*
X655452Y147220D01*
X652880Y144648D01*
X649519Y143255D01*
X645881Y143255D01*
G37*
%LPD*%
%LPC*%
G36*
X620481Y143255D02*
X620481Y143255D01*
X617120Y144648D01*
X614548Y147220D01*
X613155Y150581D01*
X613155Y154219D01*
X614548Y157580D01*
X617120Y160152D01*
X620481Y161545D01*
X624119Y161545D01*
X627480Y160152D01*
X630052Y157580D01*
X631445Y154219D01*
X631445Y150581D01*
X630052Y147220D01*
X627480Y144648D01*
X624119Y143255D01*
X620481Y143255D01*
G37*
%LPD*%
%LPC*%
G36*
X595081Y143255D02*
X595081Y143255D01*
X591720Y144648D01*
X589148Y147220D01*
X587755Y150581D01*
X587755Y154219D01*
X589148Y157580D01*
X591720Y160152D01*
X595081Y161545D01*
X598719Y161545D01*
X602080Y160152D01*
X604652Y157580D01*
X606045Y154219D01*
X606045Y150581D01*
X604652Y147220D01*
X602080Y144648D01*
X598719Y143255D01*
X595081Y143255D01*
G37*
%LPD*%
%LPC*%
G36*
X569681Y143255D02*
X569681Y143255D01*
X566320Y144648D01*
X563748Y147220D01*
X562355Y150581D01*
X562355Y154219D01*
X563748Y157580D01*
X566320Y160152D01*
X569681Y161545D01*
X573319Y161545D01*
X576680Y160152D01*
X579252Y157580D01*
X580645Y154219D01*
X580645Y150581D01*
X579252Y147220D01*
X576680Y144648D01*
X573319Y143255D01*
X569681Y143255D01*
G37*
%LPD*%
%LPC*%
G36*
X544281Y143255D02*
X544281Y143255D01*
X540920Y144648D01*
X538348Y147220D01*
X536955Y150581D01*
X536955Y154219D01*
X538348Y157580D01*
X540920Y160152D01*
X544281Y161545D01*
X547919Y161545D01*
X551280Y160152D01*
X553852Y157580D01*
X555245Y154219D01*
X555245Y150581D01*
X553852Y147220D01*
X551280Y144648D01*
X547919Y143255D01*
X544281Y143255D01*
G37*
%LPD*%
%LPC*%
G36*
X518881Y143255D02*
X518881Y143255D01*
X515520Y144648D01*
X512948Y147220D01*
X511555Y150581D01*
X511555Y154219D01*
X512948Y157580D01*
X515520Y160152D01*
X518881Y161545D01*
X522519Y161545D01*
X525880Y160152D01*
X528452Y157580D01*
X529845Y154219D01*
X529845Y150581D01*
X528452Y147220D01*
X525880Y144648D01*
X522519Y143255D01*
X518881Y143255D01*
G37*
%LPD*%
%LPC*%
G36*
X493481Y143255D02*
X493481Y143255D01*
X490120Y144648D01*
X487548Y147220D01*
X486155Y150581D01*
X486155Y154219D01*
X487548Y157580D01*
X490120Y160152D01*
X493481Y161545D01*
X497119Y161545D01*
X500480Y160152D01*
X503052Y157580D01*
X504445Y154219D01*
X504445Y150581D01*
X503052Y147220D01*
X500480Y144648D01*
X497119Y143255D01*
X493481Y143255D01*
G37*
%LPD*%
%LPC*%
G36*
X468081Y143255D02*
X468081Y143255D01*
X464720Y144648D01*
X462148Y147220D01*
X460755Y150581D01*
X460755Y154219D01*
X462148Y157580D01*
X464720Y160152D01*
X468081Y161545D01*
X471719Y161545D01*
X475080Y160152D01*
X477652Y157580D01*
X479045Y154219D01*
X479045Y150581D01*
X477652Y147220D01*
X475080Y144648D01*
X471719Y143255D01*
X468081Y143255D01*
G37*
%LPD*%
%LPC*%
G36*
X442681Y143255D02*
X442681Y143255D01*
X439320Y144648D01*
X436748Y147220D01*
X435355Y150581D01*
X435355Y154219D01*
X436748Y157580D01*
X439320Y160152D01*
X442681Y161545D01*
X446319Y161545D01*
X449680Y160152D01*
X452252Y157580D01*
X453645Y154219D01*
X453645Y150581D01*
X452252Y147220D01*
X449680Y144648D01*
X446319Y143255D01*
X442681Y143255D01*
G37*
%LPD*%
%LPC*%
G36*
X442681Y16255D02*
X442681Y16255D01*
X439320Y17648D01*
X436748Y20220D01*
X435355Y23581D01*
X435355Y27219D01*
X436748Y30580D01*
X439320Y33152D01*
X442681Y34545D01*
X446319Y34545D01*
X449680Y33152D01*
X452252Y30580D01*
X453645Y27219D01*
X453645Y23581D01*
X452252Y20220D01*
X449680Y17648D01*
X446319Y16255D01*
X442681Y16255D01*
G37*
%LPD*%
%LPC*%
G36*
X620481Y92455D02*
X620481Y92455D01*
X617120Y93848D01*
X614548Y96420D01*
X613155Y99781D01*
X613155Y103419D01*
X614548Y106780D01*
X617120Y109352D01*
X620481Y110745D01*
X624119Y110745D01*
X627480Y109352D01*
X630052Y106780D01*
X631445Y103419D01*
X631445Y99781D01*
X630052Y96420D01*
X627480Y93848D01*
X624119Y92455D01*
X620481Y92455D01*
G37*
%LPD*%
%LPC*%
G36*
X595081Y92455D02*
X595081Y92455D01*
X591720Y93848D01*
X589148Y96420D01*
X587755Y99781D01*
X587755Y103419D01*
X589148Y106780D01*
X591720Y109352D01*
X595081Y110745D01*
X598719Y110745D01*
X602080Y109352D01*
X604652Y106780D01*
X606045Y103419D01*
X606045Y99781D01*
X604652Y96420D01*
X602080Y93848D01*
X598719Y92455D01*
X595081Y92455D01*
G37*
%LPD*%
%LPC*%
G36*
X74381Y498855D02*
X74381Y498855D01*
X71020Y500248D01*
X68448Y502820D01*
X67055Y506181D01*
X67055Y509819D01*
X68448Y513180D01*
X71020Y515752D01*
X74381Y517145D01*
X78019Y517145D01*
X81380Y515752D01*
X83952Y513180D01*
X85345Y509819D01*
X85345Y506181D01*
X83952Y502820D01*
X81380Y500248D01*
X78019Y498855D01*
X74381Y498855D01*
G37*
%LPD*%
%LPC*%
G36*
X569681Y92455D02*
X569681Y92455D01*
X566320Y93848D01*
X563748Y96420D01*
X562355Y99781D01*
X562355Y103419D01*
X563748Y106780D01*
X566320Y109352D01*
X569681Y110745D01*
X573319Y110745D01*
X576680Y109352D01*
X579252Y106780D01*
X580645Y103419D01*
X580645Y99781D01*
X579252Y96420D01*
X576680Y93848D01*
X573319Y92455D01*
X569681Y92455D01*
G37*
%LPD*%
%LPC*%
G36*
X544281Y92455D02*
X544281Y92455D01*
X540920Y93848D01*
X538348Y96420D01*
X536955Y99781D01*
X536955Y103419D01*
X538348Y106780D01*
X540920Y109352D01*
X544281Y110745D01*
X547919Y110745D01*
X551280Y109352D01*
X553852Y106780D01*
X555245Y103419D01*
X555245Y99781D01*
X553852Y96420D01*
X551280Y93848D01*
X547919Y92455D01*
X544281Y92455D01*
G37*
%LPD*%
%LPC*%
G36*
X518881Y92455D02*
X518881Y92455D01*
X515520Y93848D01*
X512948Y96420D01*
X511555Y99781D01*
X511555Y103419D01*
X512948Y106780D01*
X515520Y109352D01*
X518881Y110745D01*
X522519Y110745D01*
X525880Y109352D01*
X528452Y106780D01*
X529845Y103419D01*
X529845Y99781D01*
X528452Y96420D01*
X525880Y93848D01*
X522519Y92455D01*
X518881Y92455D01*
G37*
%LPD*%
%LPC*%
G36*
X493481Y92455D02*
X493481Y92455D01*
X490120Y93848D01*
X487548Y96420D01*
X486155Y99781D01*
X486155Y103419D01*
X487548Y106780D01*
X490120Y109352D01*
X493481Y110745D01*
X497119Y110745D01*
X500480Y109352D01*
X503052Y106780D01*
X504445Y103419D01*
X504445Y99781D01*
X503052Y96420D01*
X500480Y93848D01*
X497119Y92455D01*
X493481Y92455D01*
G37*
%LPD*%
%LPC*%
G36*
X468081Y92455D02*
X468081Y92455D01*
X464720Y93848D01*
X462148Y96420D01*
X460755Y99781D01*
X460755Y103419D01*
X462148Y106780D01*
X464720Y109352D01*
X468081Y110745D01*
X471719Y110745D01*
X475080Y109352D01*
X477652Y106780D01*
X479045Y103419D01*
X479045Y99781D01*
X477652Y96420D01*
X475080Y93848D01*
X471719Y92455D01*
X468081Y92455D01*
G37*
%LPD*%
%LPC*%
G36*
X947379Y549655D02*
X947379Y549655D01*
X944018Y551048D01*
X941446Y553620D01*
X940053Y556981D01*
X940053Y560619D01*
X941446Y563980D01*
X944018Y566552D01*
X947379Y567945D01*
X951017Y567945D01*
X954378Y566552D01*
X956950Y563980D01*
X958343Y560619D01*
X958343Y556981D01*
X956950Y553620D01*
X954378Y551048D01*
X951017Y549655D01*
X947379Y549655D01*
G37*
%LPD*%
%LPC*%
G36*
X921979Y549655D02*
X921979Y549655D01*
X918618Y551048D01*
X916046Y553620D01*
X914653Y556981D01*
X914653Y560619D01*
X916046Y563980D01*
X918618Y566552D01*
X921979Y567945D01*
X925617Y567945D01*
X928978Y566552D01*
X931550Y563980D01*
X932943Y560619D01*
X932943Y556981D01*
X931550Y553620D01*
X928978Y551048D01*
X925617Y549655D01*
X921979Y549655D01*
G37*
%LPD*%
%LPC*%
G36*
X74381Y549655D02*
X74381Y549655D01*
X71020Y551048D01*
X68448Y553620D01*
X67055Y556981D01*
X67055Y560619D01*
X68448Y563980D01*
X71020Y566552D01*
X74381Y567945D01*
X78019Y567945D01*
X81380Y566552D01*
X83952Y563980D01*
X85345Y560619D01*
X85345Y556981D01*
X83952Y553620D01*
X81380Y551048D01*
X78019Y549655D01*
X74381Y549655D01*
G37*
%LPD*%
%LPC*%
G36*
X48981Y549655D02*
X48981Y549655D01*
X45620Y551048D01*
X43048Y553620D01*
X41655Y556981D01*
X41655Y560619D01*
X43048Y563980D01*
X45620Y566552D01*
X48981Y567945D01*
X52619Y567945D01*
X55980Y566552D01*
X58552Y563980D01*
X59945Y560619D01*
X59945Y556981D01*
X58552Y553620D01*
X55980Y551048D01*
X52619Y549655D01*
X48981Y549655D01*
G37*
%LPD*%
%LPC*%
G36*
X442681Y92455D02*
X442681Y92455D01*
X439320Y93848D01*
X436748Y96420D01*
X435355Y99781D01*
X435355Y103419D01*
X436748Y106780D01*
X439320Y109352D01*
X442681Y110745D01*
X446319Y110745D01*
X449680Y109352D01*
X452252Y106780D01*
X453645Y103419D01*
X453645Y99781D01*
X452252Y96420D01*
X449680Y93848D01*
X446319Y92455D01*
X442681Y92455D01*
G37*
%LPD*%
%LPC*%
G36*
X417281Y92455D02*
X417281Y92455D01*
X413920Y93848D01*
X411348Y96420D01*
X409955Y99781D01*
X409955Y103419D01*
X411348Y106780D01*
X413920Y109352D01*
X417281Y110745D01*
X420919Y110745D01*
X424280Y109352D01*
X426852Y106780D01*
X428245Y103419D01*
X428245Y99781D01*
X426852Y96420D01*
X424280Y93848D01*
X420919Y92455D01*
X417281Y92455D01*
G37*
%LPD*%
%LPC*%
G36*
X921979Y524255D02*
X921979Y524255D01*
X918618Y525648D01*
X916046Y528220D01*
X914653Y531581D01*
X914653Y535219D01*
X916046Y538580D01*
X918618Y541152D01*
X921979Y542545D01*
X925617Y542545D01*
X928978Y541152D01*
X931550Y538580D01*
X932943Y535219D01*
X932943Y531581D01*
X931550Y528220D01*
X928978Y525648D01*
X925617Y524255D01*
X921979Y524255D01*
G37*
%LPD*%
%LPC*%
G36*
X391881Y92455D02*
X391881Y92455D01*
X388520Y93848D01*
X385948Y96420D01*
X384555Y99781D01*
X384555Y103419D01*
X385948Y106780D01*
X388520Y109352D01*
X391881Y110745D01*
X395519Y110745D01*
X398880Y109352D01*
X401452Y106780D01*
X402845Y103419D01*
X402845Y99781D01*
X401452Y96420D01*
X398880Y93848D01*
X395519Y92455D01*
X391881Y92455D01*
G37*
%LPD*%
%LPC*%
G36*
X417281Y16255D02*
X417281Y16255D01*
X413920Y17648D01*
X411348Y20220D01*
X409955Y23581D01*
X409955Y27219D01*
X411348Y30580D01*
X413920Y33152D01*
X417281Y34545D01*
X420919Y34545D01*
X424280Y33152D01*
X426852Y30580D01*
X428245Y27219D01*
X428245Y23581D01*
X426852Y20220D01*
X424280Y17648D01*
X420919Y16255D01*
X417281Y16255D01*
G37*
%LPD*%
%LPC*%
G36*
X921979Y498855D02*
X921979Y498855D01*
X918618Y500248D01*
X916046Y502820D01*
X914653Y506181D01*
X914653Y509819D01*
X916046Y513180D01*
X918618Y515752D01*
X921979Y517145D01*
X925617Y517145D01*
X928978Y515752D01*
X931550Y513180D01*
X932943Y509819D01*
X932943Y506181D01*
X931550Y502820D01*
X928978Y500248D01*
X925617Y498855D01*
X921979Y498855D01*
G37*
%LPD*%
%LPC*%
G36*
X391881Y16255D02*
X391881Y16255D01*
X388520Y17648D01*
X385948Y20220D01*
X384555Y23581D01*
X384555Y27219D01*
X385948Y30580D01*
X388520Y33152D01*
X391881Y34545D01*
X395519Y34545D01*
X398880Y33152D01*
X401452Y30580D01*
X402845Y27219D01*
X402845Y23581D01*
X401452Y20220D01*
X398880Y17648D01*
X395519Y16255D01*
X391881Y16255D01*
G37*
%LPD*%
%LPC*%
G36*
X620481Y16255D02*
X620481Y16255D01*
X617120Y17648D01*
X614548Y20220D01*
X613155Y23581D01*
X613155Y27219D01*
X614548Y30580D01*
X617120Y33152D01*
X620481Y34545D01*
X624119Y34545D01*
X627480Y33152D01*
X630052Y30580D01*
X631445Y27219D01*
X631445Y23581D01*
X630052Y20220D01*
X627480Y17648D01*
X624119Y16255D01*
X620481Y16255D01*
G37*
%LPD*%
%LPC*%
G36*
X595081Y16255D02*
X595081Y16255D01*
X591720Y17648D01*
X589148Y20220D01*
X587755Y23581D01*
X587755Y27219D01*
X589148Y30580D01*
X591720Y33152D01*
X595081Y34545D01*
X598719Y34545D01*
X602080Y33152D01*
X604652Y30580D01*
X606045Y27219D01*
X606045Y23581D01*
X604652Y20220D01*
X602080Y17648D01*
X598719Y16255D01*
X595081Y16255D01*
G37*
%LPD*%
%LPC*%
G36*
X74381Y473455D02*
X74381Y473455D01*
X71020Y474848D01*
X68448Y477420D01*
X67055Y480781D01*
X67055Y484419D01*
X68448Y487780D01*
X71020Y490352D01*
X74381Y491745D01*
X78019Y491745D01*
X81380Y490352D01*
X83952Y487780D01*
X85345Y484419D01*
X85345Y480781D01*
X83952Y477420D01*
X81380Y474848D01*
X78019Y473455D01*
X74381Y473455D01*
G37*
%LPD*%
%LPC*%
G36*
X569681Y16255D02*
X569681Y16255D01*
X566320Y17648D01*
X563748Y20220D01*
X562355Y23581D01*
X562355Y27219D01*
X563748Y30580D01*
X566320Y33152D01*
X569681Y34545D01*
X573319Y34545D01*
X576680Y33152D01*
X579252Y30580D01*
X580645Y27219D01*
X580645Y23581D01*
X579252Y20220D01*
X576680Y17648D01*
X573319Y16255D01*
X569681Y16255D01*
G37*
%LPD*%
%LPC*%
G36*
X544281Y16255D02*
X544281Y16255D01*
X540920Y17648D01*
X538348Y20220D01*
X536955Y23581D01*
X536955Y27219D01*
X538348Y30580D01*
X540920Y33152D01*
X544281Y34545D01*
X547919Y34545D01*
X551280Y33152D01*
X553852Y30580D01*
X555245Y27219D01*
X555245Y23581D01*
X553852Y20220D01*
X551280Y17648D01*
X547919Y16255D01*
X544281Y16255D01*
G37*
%LPD*%
%LPC*%
G36*
X947379Y448055D02*
X947379Y448055D01*
X944018Y449448D01*
X941446Y452020D01*
X940053Y455381D01*
X940053Y459019D01*
X941446Y462380D01*
X944018Y464952D01*
X947379Y466345D01*
X951017Y466345D01*
X954378Y464952D01*
X956950Y462380D01*
X958343Y459019D01*
X958343Y455381D01*
X956950Y452020D01*
X954378Y449448D01*
X951017Y448055D01*
X947379Y448055D01*
G37*
%LPD*%
%LPC*%
G36*
X921979Y448055D02*
X921979Y448055D01*
X918618Y449448D01*
X916046Y452020D01*
X914653Y455381D01*
X914653Y459019D01*
X916046Y462380D01*
X918618Y464952D01*
X921979Y466345D01*
X925617Y466345D01*
X928978Y464952D01*
X931550Y462380D01*
X932943Y459019D01*
X932943Y455381D01*
X931550Y452020D01*
X928978Y449448D01*
X925617Y448055D01*
X921979Y448055D01*
G37*
%LPD*%
%LPC*%
G36*
X74381Y448055D02*
X74381Y448055D01*
X71020Y449448D01*
X68448Y452020D01*
X67055Y455381D01*
X67055Y459019D01*
X68448Y462380D01*
X71020Y464952D01*
X74381Y466345D01*
X78019Y466345D01*
X81380Y464952D01*
X83952Y462380D01*
X85345Y459019D01*
X85345Y455381D01*
X83952Y452020D01*
X81380Y449448D01*
X78019Y448055D01*
X74381Y448055D01*
G37*
%LPD*%
%LPC*%
G36*
X48981Y448055D02*
X48981Y448055D01*
X45620Y449448D01*
X43048Y452020D01*
X41655Y455381D01*
X41655Y459019D01*
X43048Y462380D01*
X45620Y464952D01*
X48981Y466345D01*
X52619Y466345D01*
X55980Y464952D01*
X58552Y462380D01*
X59945Y459019D01*
X59945Y455381D01*
X58552Y452020D01*
X55980Y449448D01*
X52619Y448055D01*
X48981Y448055D01*
G37*
%LPD*%
%LPC*%
G36*
X518881Y16255D02*
X518881Y16255D01*
X515520Y17648D01*
X512948Y20220D01*
X511555Y23581D01*
X511555Y27219D01*
X512948Y30580D01*
X515520Y33152D01*
X518881Y34545D01*
X522519Y34545D01*
X525880Y33152D01*
X528452Y30580D01*
X529845Y27219D01*
X529845Y23581D01*
X528452Y20220D01*
X525880Y17648D01*
X522519Y16255D01*
X518881Y16255D01*
G37*
%LPD*%
%LPC*%
G36*
X493481Y16255D02*
X493481Y16255D01*
X490120Y17648D01*
X487548Y20220D01*
X486155Y23581D01*
X486155Y27219D01*
X487548Y30580D01*
X490120Y33152D01*
X493481Y34545D01*
X497119Y34545D01*
X500480Y33152D01*
X503052Y30580D01*
X504445Y27219D01*
X504445Y23581D01*
X503052Y20220D01*
X500480Y17648D01*
X497119Y16255D01*
X493481Y16255D01*
G37*
%LPD*%
%LPC*%
G36*
X468081Y16255D02*
X468081Y16255D01*
X464720Y17648D01*
X462148Y20220D01*
X460755Y23581D01*
X460755Y27219D01*
X462148Y30580D01*
X464720Y33152D01*
X468081Y34545D01*
X471719Y34545D01*
X475080Y33152D01*
X477652Y30580D01*
X479045Y27219D01*
X479045Y23581D01*
X477652Y20220D01*
X475080Y17648D01*
X471719Y16255D01*
X468081Y16255D01*
G37*
%LPD*%
%LPC*%
G36*
X544281Y295655D02*
X544281Y295655D01*
X540920Y297048D01*
X538348Y299620D01*
X536955Y302981D01*
X536955Y306619D01*
X538348Y309980D01*
X540920Y312552D01*
X544281Y313945D01*
X547919Y313945D01*
X551280Y312552D01*
X553852Y309980D01*
X555245Y306619D01*
X555245Y302981D01*
X553852Y299620D01*
X551280Y297048D01*
X547919Y295655D01*
X544281Y295655D01*
G37*
%LPD*%
%LPC*%
G36*
X518881Y295655D02*
X518881Y295655D01*
X515520Y297048D01*
X512948Y299620D01*
X511555Y302981D01*
X511555Y306619D01*
X512948Y309980D01*
X515520Y312552D01*
X518881Y313945D01*
X522519Y313945D01*
X525880Y312552D01*
X528452Y309980D01*
X529845Y306619D01*
X529845Y302981D01*
X528452Y299620D01*
X525880Y297048D01*
X522519Y295655D01*
X518881Y295655D01*
G37*
%LPD*%
%LPC*%
G36*
X696681Y295655D02*
X696681Y295655D01*
X693320Y297048D01*
X690748Y299620D01*
X689355Y302981D01*
X689355Y306619D01*
X690748Y309980D01*
X693320Y312552D01*
X696681Y313945D01*
X700319Y313945D01*
X703680Y312552D01*
X706252Y309980D01*
X707645Y306619D01*
X707645Y302981D01*
X706252Y299620D01*
X703680Y297048D01*
X700319Y295655D01*
X696681Y295655D01*
G37*
%LPD*%
%LPC*%
G36*
X671281Y295655D02*
X671281Y295655D01*
X667920Y297048D01*
X665348Y299620D01*
X663955Y302981D01*
X663955Y306619D01*
X665348Y309980D01*
X667920Y312552D01*
X671281Y313945D01*
X674919Y313945D01*
X678280Y312552D01*
X680852Y309980D01*
X682245Y306619D01*
X682245Y302981D01*
X680852Y299620D01*
X678280Y297048D01*
X674919Y295655D01*
X671281Y295655D01*
G37*
%LPD*%
%LPC*%
G36*
X645881Y295655D02*
X645881Y295655D01*
X642520Y297048D01*
X639948Y299620D01*
X638555Y302981D01*
X638555Y306619D01*
X639948Y309980D01*
X642520Y312552D01*
X645881Y313945D01*
X649519Y313945D01*
X652880Y312552D01*
X655452Y309980D01*
X656845Y306619D01*
X656845Y302981D01*
X655452Y299620D01*
X652880Y297048D01*
X649519Y295655D01*
X645881Y295655D01*
G37*
%LPD*%
%LPC*%
G36*
X620481Y295655D02*
X620481Y295655D01*
X617120Y297048D01*
X614548Y299620D01*
X613155Y302981D01*
X613155Y306619D01*
X614548Y309980D01*
X617120Y312552D01*
X620481Y313945D01*
X624119Y313945D01*
X627480Y312552D01*
X630052Y309980D01*
X631445Y306619D01*
X631445Y302981D01*
X630052Y299620D01*
X627480Y297048D01*
X624119Y295655D01*
X620481Y295655D01*
G37*
%LPD*%
%LPC*%
G36*
X595081Y295655D02*
X595081Y295655D01*
X591720Y297048D01*
X589148Y299620D01*
X587755Y302981D01*
X587755Y306619D01*
X589148Y309980D01*
X591720Y312552D01*
X595081Y313945D01*
X598719Y313945D01*
X602080Y312552D01*
X604652Y309980D01*
X606045Y306619D01*
X606045Y302981D01*
X604652Y299620D01*
X602080Y297048D01*
X598719Y295655D01*
X595081Y295655D01*
G37*
%LPD*%
%LPC*%
G36*
X569681Y295655D02*
X569681Y295655D01*
X566320Y297048D01*
X563748Y299620D01*
X562355Y302981D01*
X562355Y306619D01*
X563748Y309980D01*
X566320Y312552D01*
X569681Y313945D01*
X573319Y313945D01*
X576680Y312552D01*
X579252Y309980D01*
X580645Y306619D01*
X580645Y302981D01*
X579252Y299620D01*
X576680Y297048D01*
X573319Y295655D01*
X569681Y295655D01*
G37*
%LPD*%
%LPC*%
G36*
X493481Y295655D02*
X493481Y295655D01*
X490120Y297048D01*
X487548Y299620D01*
X486155Y302981D01*
X486155Y306619D01*
X487548Y309980D01*
X490120Y312552D01*
X493481Y313945D01*
X497119Y313945D01*
X500480Y312552D01*
X503052Y309980D01*
X504445Y306619D01*
X504445Y302981D01*
X503052Y299620D01*
X500480Y297048D01*
X497119Y295655D01*
X493481Y295655D01*
G37*
%LPD*%
%LPC*%
G36*
X468081Y295655D02*
X468081Y295655D01*
X464720Y297048D01*
X462148Y299620D01*
X460755Y302981D01*
X460755Y306619D01*
X462148Y309980D01*
X464720Y312552D01*
X468081Y313945D01*
X471719Y313945D01*
X475080Y312552D01*
X477652Y309980D01*
X479045Y306619D01*
X479045Y302981D01*
X477652Y299620D01*
X475080Y297048D01*
X471719Y295655D01*
X468081Y295655D01*
G37*
%LPD*%
%LPC*%
G36*
X442681Y295655D02*
X442681Y295655D01*
X439320Y297048D01*
X436748Y299620D01*
X435355Y302981D01*
X435355Y306619D01*
X436748Y309980D01*
X439320Y312552D01*
X442681Y313945D01*
X446319Y313945D01*
X449680Y312552D01*
X452252Y309980D01*
X453645Y306619D01*
X453645Y302981D01*
X452252Y299620D01*
X449680Y297048D01*
X446319Y295655D01*
X442681Y295655D01*
G37*
%LPD*%
%LPC*%
G36*
X417281Y295655D02*
X417281Y295655D01*
X413920Y297048D01*
X411348Y299620D01*
X409955Y302981D01*
X409955Y306619D01*
X411348Y309980D01*
X413920Y312552D01*
X417281Y313945D01*
X420919Y313945D01*
X424280Y312552D01*
X426852Y309980D01*
X428245Y306619D01*
X428245Y302981D01*
X426852Y299620D01*
X424280Y297048D01*
X420919Y295655D01*
X417281Y295655D01*
G37*
%LPD*%
%LPC*%
G36*
X366481Y295655D02*
X366481Y295655D01*
X363120Y297048D01*
X360548Y299620D01*
X359155Y302981D01*
X359155Y306619D01*
X360548Y309980D01*
X363120Y312552D01*
X366481Y313945D01*
X370119Y313945D01*
X373480Y312552D01*
X376052Y309980D01*
X377445Y306619D01*
X377445Y302981D01*
X376052Y299620D01*
X373480Y297048D01*
X370119Y295655D01*
X366481Y295655D01*
G37*
%LPD*%
%LPC*%
G36*
X696681Y270255D02*
X696681Y270255D01*
X693320Y271648D01*
X690748Y274220D01*
X689355Y277581D01*
X689355Y281219D01*
X690748Y284580D01*
X693320Y287152D01*
X696681Y288545D01*
X700319Y288545D01*
X703680Y287152D01*
X706252Y284580D01*
X707645Y281219D01*
X707645Y277581D01*
X706252Y274220D01*
X703680Y271648D01*
X700319Y270255D01*
X696681Y270255D01*
G37*
%LPD*%
%LPC*%
G36*
X696681Y194055D02*
X696681Y194055D01*
X693320Y195448D01*
X690748Y198020D01*
X689355Y201381D01*
X689355Y205019D01*
X690748Y208380D01*
X693320Y210952D01*
X696681Y212345D01*
X700319Y212345D01*
X703680Y210952D01*
X706252Y208380D01*
X707645Y205019D01*
X707645Y201381D01*
X706252Y198020D01*
X703680Y195448D01*
X700319Y194055D01*
X696681Y194055D01*
G37*
%LPD*%
%LPC*%
G36*
X417281Y143255D02*
X417281Y143255D01*
X413920Y144648D01*
X411348Y147220D01*
X409955Y150581D01*
X409955Y154219D01*
X411348Y157580D01*
X413920Y160152D01*
X417281Y161545D01*
X420919Y161545D01*
X424280Y160152D01*
X426852Y157580D01*
X428245Y154219D01*
X428245Y150581D01*
X426852Y147220D01*
X424280Y144648D01*
X420919Y143255D01*
X417281Y143255D01*
G37*
%LPD*%
%LPC*%
G36*
X176914Y677671D02*
X176914Y677671D01*
X176021Y678564D01*
X176021Y693036D01*
X176914Y693929D01*
X191386Y693929D01*
X192279Y693036D01*
X192279Y678564D01*
X191386Y677671D01*
X176914Y677671D01*
G37*
%LPD*%
%LPC*%
G36*
X81664Y93471D02*
X81664Y93471D01*
X80771Y94364D01*
X80771Y108836D01*
X81664Y109729D01*
X96136Y109729D01*
X97029Y108836D01*
X97029Y94364D01*
X96136Y93471D01*
X81664Y93471D01*
G37*
%LPD*%
%LPC*%
G36*
X804833Y677671D02*
X804833Y677671D01*
X801845Y678909D01*
X799559Y681195D01*
X798321Y684183D01*
X798321Y687417D01*
X799559Y690405D01*
X801845Y692691D01*
X804833Y693929D01*
X808067Y693929D01*
X811055Y692691D01*
X813341Y690405D01*
X814579Y687417D01*
X814579Y684183D01*
X813341Y681195D01*
X811055Y678909D01*
X808067Y677671D01*
X804833Y677671D01*
G37*
%LPD*%
%LPC*%
G36*
X290483Y93471D02*
X290483Y93471D01*
X287495Y94709D01*
X285209Y96995D01*
X283971Y99983D01*
X283971Y103217D01*
X285209Y106205D01*
X287495Y108491D01*
X290483Y109729D01*
X293717Y109729D01*
X296705Y108491D01*
X298991Y106205D01*
X300229Y103217D01*
X300229Y99983D01*
X298991Y96995D01*
X296705Y94709D01*
X293717Y93471D01*
X290483Y93471D01*
G37*
%LPD*%
%LPC*%
G36*
X315883Y93471D02*
X315883Y93471D01*
X312895Y94709D01*
X310609Y96995D01*
X309371Y99983D01*
X309371Y103217D01*
X310609Y106205D01*
X312895Y108491D01*
X315883Y109729D01*
X319117Y109729D01*
X322105Y108491D01*
X324391Y106205D01*
X325629Y103217D01*
X325629Y99983D01*
X324391Y96995D01*
X322105Y94709D01*
X319117Y93471D01*
X315883Y93471D01*
G37*
%LPD*%
%LPC*%
G36*
X341283Y93471D02*
X341283Y93471D01*
X338295Y94709D01*
X336009Y96995D01*
X334771Y99983D01*
X334771Y103217D01*
X336009Y106205D01*
X338295Y108491D01*
X341283Y109729D01*
X344517Y109729D01*
X347505Y108491D01*
X349791Y106205D01*
X351029Y103217D01*
X351029Y99983D01*
X349791Y96995D01*
X347505Y94709D01*
X344517Y93471D01*
X341283Y93471D01*
G37*
%LPD*%
%LPC*%
G36*
X239683Y93471D02*
X239683Y93471D01*
X236695Y94709D01*
X234409Y96995D01*
X233171Y99983D01*
X233171Y103217D01*
X234409Y106205D01*
X236695Y108491D01*
X239683Y109729D01*
X242917Y109729D01*
X245905Y108491D01*
X248191Y106205D01*
X249429Y103217D01*
X249429Y99983D01*
X248191Y96995D01*
X245905Y94709D01*
X242917Y93471D01*
X239683Y93471D01*
G37*
%LPD*%
%LPC*%
G36*
X830233Y677671D02*
X830233Y677671D01*
X827245Y678909D01*
X824959Y681195D01*
X823721Y684183D01*
X823721Y687417D01*
X824959Y690405D01*
X827245Y692691D01*
X830233Y693929D01*
X833467Y693929D01*
X836455Y692691D01*
X838741Y690405D01*
X839979Y687417D01*
X839979Y684183D01*
X838741Y681195D01*
X836455Y678909D01*
X833467Y677671D01*
X830233Y677671D01*
G37*
%LPD*%
%LPC*%
G36*
X233333Y677671D02*
X233333Y677671D01*
X230345Y678909D01*
X228059Y681195D01*
X226821Y684183D01*
X226821Y687417D01*
X228059Y690405D01*
X230345Y692691D01*
X233333Y693929D01*
X236567Y693929D01*
X239555Y692691D01*
X241841Y690405D01*
X243079Y687417D01*
X243079Y684183D01*
X241841Y681195D01*
X239555Y678909D01*
X236567Y677671D01*
X233333Y677671D01*
G37*
%LPD*%
%LPC*%
G36*
X207933Y677671D02*
X207933Y677671D01*
X204945Y678909D01*
X202659Y681195D01*
X201421Y684183D01*
X201421Y687417D01*
X202659Y690405D01*
X204945Y692691D01*
X207933Y693929D01*
X211167Y693929D01*
X214155Y692691D01*
X216441Y690405D01*
X217679Y687417D01*
X217679Y684183D01*
X216441Y681195D01*
X214155Y678909D01*
X211167Y677671D01*
X207933Y677671D01*
G37*
%LPD*%
%LPC*%
G36*
X754033Y677671D02*
X754033Y677671D01*
X751045Y678909D01*
X748759Y681195D01*
X747521Y684183D01*
X747521Y687417D01*
X748759Y690405D01*
X751045Y692691D01*
X754033Y693929D01*
X757267Y693929D01*
X760255Y692691D01*
X762541Y690405D01*
X763779Y687417D01*
X763779Y684183D01*
X762541Y681195D01*
X760255Y678909D01*
X757267Y677671D01*
X754033Y677671D01*
G37*
%LPD*%
%LPC*%
G36*
X309533Y677671D02*
X309533Y677671D01*
X306545Y678909D01*
X304259Y681195D01*
X303021Y684183D01*
X303021Y687417D01*
X304259Y690405D01*
X306545Y692691D01*
X309533Y693929D01*
X312767Y693929D01*
X315755Y692691D01*
X318041Y690405D01*
X319279Y687417D01*
X319279Y684183D01*
X318041Y681195D01*
X315755Y678909D01*
X312767Y677671D01*
X309533Y677671D01*
G37*
%LPD*%
%LPC*%
G36*
X284133Y677671D02*
X284133Y677671D01*
X281145Y678909D01*
X278859Y681195D01*
X277621Y684183D01*
X277621Y687417D01*
X278859Y690405D01*
X281145Y692691D01*
X284133Y693929D01*
X287367Y693929D01*
X290355Y692691D01*
X292641Y690405D01*
X293879Y687417D01*
X293879Y684183D01*
X292641Y681195D01*
X290355Y678909D01*
X287367Y677671D01*
X284133Y677671D01*
G37*
%LPD*%
%LPC*%
G36*
X258733Y677671D02*
X258733Y677671D01*
X255745Y678909D01*
X253459Y681195D01*
X252221Y684183D01*
X252221Y687417D01*
X253459Y690405D01*
X255745Y692691D01*
X258733Y693929D01*
X261967Y693929D01*
X264955Y692691D01*
X267241Y690405D01*
X268479Y687417D01*
X268479Y684183D01*
X267241Y681195D01*
X264955Y678909D01*
X261967Y677671D01*
X258733Y677671D01*
G37*
%LPD*%
%LPC*%
G36*
X265083Y93471D02*
X265083Y93471D01*
X262095Y94709D01*
X259809Y96995D01*
X258571Y99983D01*
X258571Y103217D01*
X259809Y106205D01*
X262095Y108491D01*
X265083Y109729D01*
X268317Y109729D01*
X271305Y108491D01*
X273591Y106205D01*
X274829Y103217D01*
X274829Y99983D01*
X273591Y96995D01*
X271305Y94709D01*
X268317Y93471D01*
X265083Y93471D01*
G37*
%LPD*%
%LPC*%
G36*
X112683Y93471D02*
X112683Y93471D01*
X109695Y94709D01*
X107409Y96995D01*
X106171Y99983D01*
X106171Y103217D01*
X107409Y106205D01*
X109695Y108491D01*
X112683Y109729D01*
X115917Y109729D01*
X118905Y108491D01*
X121191Y106205D01*
X122429Y103217D01*
X122429Y99983D01*
X121191Y96995D01*
X118905Y94709D01*
X115917Y93471D01*
X112683Y93471D01*
G37*
%LPD*%
%LPC*%
G36*
X138083Y93471D02*
X138083Y93471D01*
X135095Y94709D01*
X132809Y96995D01*
X131571Y99983D01*
X131571Y103217D01*
X132809Y106205D01*
X135095Y108491D01*
X138083Y109729D01*
X141317Y109729D01*
X144305Y108491D01*
X146591Y106205D01*
X147829Y103217D01*
X147829Y99983D01*
X146591Y96995D01*
X144305Y94709D01*
X141317Y93471D01*
X138083Y93471D01*
G37*
%LPD*%
%LPC*%
G36*
X163483Y93471D02*
X163483Y93471D01*
X160495Y94709D01*
X158209Y96995D01*
X156971Y99983D01*
X156971Y103217D01*
X158209Y106205D01*
X160495Y108491D01*
X163483Y109729D01*
X166717Y109729D01*
X169705Y108491D01*
X171991Y106205D01*
X173229Y103217D01*
X173229Y99983D01*
X171991Y96995D01*
X169705Y94709D01*
X166717Y93471D01*
X163483Y93471D01*
G37*
%LPD*%
%LPC*%
G36*
X188883Y93471D02*
X188883Y93471D01*
X185895Y94709D01*
X183609Y96995D01*
X182371Y99983D01*
X182371Y103217D01*
X183609Y106205D01*
X185895Y108491D01*
X188883Y109729D01*
X192117Y109729D01*
X195105Y108491D01*
X197391Y106205D01*
X198629Y103217D01*
X198629Y99983D01*
X197391Y96995D01*
X195105Y94709D01*
X192117Y93471D01*
X188883Y93471D01*
G37*
%LPD*%
%LPC*%
G36*
X214283Y93471D02*
X214283Y93471D01*
X211295Y94709D01*
X209009Y96995D01*
X207771Y99983D01*
X207771Y103217D01*
X209009Y106205D01*
X211295Y108491D01*
X214283Y109729D01*
X217517Y109729D01*
X220505Y108491D01*
X222791Y106205D01*
X224029Y103217D01*
X224029Y99983D01*
X222791Y96995D01*
X220505Y94709D01*
X217517Y93471D01*
X214283Y93471D01*
G37*
%LPD*%
%LPC*%
G36*
X726439Y231139D02*
X726439Y231139D01*
X726439Y240285D01*
X726696Y240245D01*
X728483Y239664D01*
X730157Y238811D01*
X731678Y237706D01*
X733006Y236378D01*
X734111Y234857D01*
X734964Y233183D01*
X735545Y231396D01*
X735585Y231139D01*
X726439Y231139D01*
G37*
%LPD*%
%LPC*%
G36*
X396239Y332739D02*
X396239Y332739D01*
X396239Y341885D01*
X396496Y341845D01*
X398283Y341264D01*
X399958Y340411D01*
X401478Y339306D01*
X402806Y337978D01*
X403911Y336457D01*
X404764Y334783D01*
X405345Y332996D01*
X405385Y332739D01*
X396239Y332739D01*
G37*
%LPD*%
%LPC*%
G36*
X216915Y180339D02*
X216915Y180339D01*
X216955Y180596D01*
X217536Y182383D01*
X218389Y184057D01*
X219494Y185578D01*
X220822Y186906D01*
X222343Y188011D01*
X224017Y188864D01*
X225804Y189445D01*
X226061Y189485D01*
X226061Y180339D01*
X216915Y180339D01*
G37*
%LPD*%
%LPC*%
G36*
X712215Y307339D02*
X712215Y307339D01*
X712255Y307596D01*
X712836Y309383D01*
X713689Y311057D01*
X714794Y312578D01*
X716122Y313906D01*
X717643Y315011D01*
X719317Y315864D01*
X721104Y316445D01*
X721361Y316485D01*
X721361Y307339D01*
X712215Y307339D01*
G37*
%LPD*%
%LPC*%
G36*
X712215Y231139D02*
X712215Y231139D01*
X712255Y231396D01*
X712836Y233183D01*
X713689Y234857D01*
X714794Y236378D01*
X716122Y237706D01*
X717643Y238811D01*
X719317Y239664D01*
X721104Y240245D01*
X721361Y240285D01*
X721361Y231139D01*
X712215Y231139D01*
G37*
%LPD*%
%LPC*%
G36*
X396239Y327661D02*
X396239Y327661D01*
X405385Y327661D01*
X405345Y327404D01*
X404764Y325617D01*
X403911Y323943D01*
X402806Y322422D01*
X401478Y321094D01*
X399957Y319989D01*
X398283Y319136D01*
X396496Y318555D01*
X396239Y318515D01*
X396239Y327661D01*
G37*
%LPD*%
%LPC*%
G36*
X721104Y293155D02*
X721104Y293155D01*
X719317Y293736D01*
X717643Y294589D01*
X716122Y295694D01*
X714794Y297022D01*
X713689Y298543D01*
X712836Y300217D01*
X712255Y302004D01*
X712215Y302261D01*
X721361Y302261D01*
X721361Y293115D01*
X721104Y293155D01*
G37*
%LPD*%
%LPC*%
G36*
X225804Y166155D02*
X225804Y166155D01*
X224017Y166736D01*
X222343Y167589D01*
X220822Y168694D01*
X219494Y170022D01*
X218389Y171543D01*
X217536Y173217D01*
X216955Y175004D01*
X216915Y175261D01*
X226061Y175261D01*
X226061Y166115D01*
X225804Y166155D01*
G37*
%LPD*%
%LPC*%
G36*
X701039Y231139D02*
X701039Y231139D01*
X701039Y238459D01*
X702400Y238016D01*
X703825Y237290D01*
X705119Y236350D01*
X706250Y235219D01*
X707190Y233925D01*
X707916Y232500D01*
X708359Y231139D01*
X701039Y231139D01*
G37*
%LPD*%
%LPC*%
G36*
X926337Y485139D02*
X926337Y485139D01*
X926337Y492459D01*
X927698Y492016D01*
X929123Y491290D01*
X930417Y490350D01*
X931548Y489219D01*
X932488Y487925D01*
X933214Y486500D01*
X933657Y485139D01*
X926337Y485139D01*
G37*
%LPD*%
%LPC*%
G36*
X396239Y307339D02*
X396239Y307339D01*
X396239Y314659D01*
X397600Y314216D01*
X399025Y313490D01*
X400319Y312550D01*
X401450Y311419D01*
X402390Y310125D01*
X403116Y308700D01*
X403559Y307339D01*
X396239Y307339D01*
G37*
%LPD*%
%LPC*%
G36*
X370839Y154939D02*
X370839Y154939D01*
X370839Y162259D01*
X372200Y161816D01*
X373625Y161090D01*
X374919Y160150D01*
X376050Y159019D01*
X376990Y157725D01*
X377716Y156300D01*
X378159Y154939D01*
X370839Y154939D01*
G37*
%LPD*%
%LPC*%
G36*
X78739Y535939D02*
X78739Y535939D01*
X78739Y543259D01*
X80100Y542816D01*
X81525Y542090D01*
X82819Y541150D01*
X83950Y540019D01*
X84890Y538725D01*
X85616Y537300D01*
X86059Y535939D01*
X78739Y535939D01*
G37*
%LPD*%
%LPC*%
G36*
X78739Y530861D02*
X78739Y530861D01*
X86059Y530861D01*
X85616Y529500D01*
X84890Y528075D01*
X83950Y526781D01*
X82819Y525650D01*
X81525Y524710D01*
X80100Y523984D01*
X78739Y523541D01*
X78739Y530861D01*
G37*
%LPD*%
%LPC*%
G36*
X370839Y149861D02*
X370839Y149861D01*
X378159Y149861D01*
X377716Y148500D01*
X376990Y147075D01*
X376050Y145781D01*
X374919Y144650D01*
X373625Y143710D01*
X372200Y142984D01*
X370839Y142541D01*
X370839Y149861D01*
G37*
%LPD*%
%LPC*%
G36*
X66341Y535939D02*
X66341Y535939D01*
X66784Y537300D01*
X67510Y538725D01*
X68450Y540019D01*
X69581Y541150D01*
X70875Y542090D01*
X72300Y542816D01*
X73661Y543259D01*
X73661Y535939D01*
X66341Y535939D01*
G37*
%LPD*%
%LPC*%
G36*
X396239Y302261D02*
X396239Y302261D01*
X403559Y302261D01*
X403116Y300900D01*
X402390Y299475D01*
X401450Y298181D01*
X400319Y297050D01*
X399025Y296110D01*
X397600Y295384D01*
X396239Y294941D01*
X396239Y302261D01*
G37*
%LPD*%
%LPC*%
G36*
X383841Y307339D02*
X383841Y307339D01*
X384284Y308700D01*
X385010Y310125D01*
X385950Y311419D01*
X387081Y312550D01*
X388375Y313490D01*
X389800Y314216D01*
X391161Y314659D01*
X391161Y307339D01*
X383841Y307339D01*
G37*
%LPD*%
%LPC*%
G36*
X701039Y226061D02*
X701039Y226061D01*
X708359Y226061D01*
X707916Y224700D01*
X707190Y223275D01*
X706250Y221981D01*
X705119Y220850D01*
X703825Y219910D01*
X702400Y219184D01*
X701039Y218741D01*
X701039Y226061D01*
G37*
%LPD*%
%LPC*%
G36*
X358441Y154939D02*
X358441Y154939D01*
X358884Y156300D01*
X359610Y157725D01*
X360550Y159019D01*
X361681Y160150D01*
X362975Y161090D01*
X364400Y161816D01*
X365761Y162259D01*
X365761Y154939D01*
X358441Y154939D01*
G37*
%LPD*%
%LPC*%
G36*
X688641Y231139D02*
X688641Y231139D01*
X689084Y232500D01*
X689810Y233925D01*
X690750Y235219D01*
X691881Y236350D01*
X693175Y237290D01*
X694600Y238016D01*
X695961Y238459D01*
X695961Y231139D01*
X688641Y231139D01*
G37*
%LPD*%
%LPC*%
G36*
X926337Y480061D02*
X926337Y480061D01*
X933657Y480061D01*
X933214Y478700D01*
X932488Y477275D01*
X931548Y475981D01*
X930417Y474850D01*
X929123Y473910D01*
X927698Y473184D01*
X926337Y472741D01*
X926337Y480061D01*
G37*
%LPD*%
%LPC*%
G36*
X913939Y485139D02*
X913939Y485139D01*
X914382Y486500D01*
X915108Y487925D01*
X916048Y489219D01*
X917179Y490350D01*
X918473Y491290D01*
X919898Y492016D01*
X921259Y492459D01*
X921259Y485139D01*
X913939Y485139D01*
G37*
%LPD*%
%LPC*%
G36*
X694600Y219184D02*
X694600Y219184D01*
X693175Y219910D01*
X691881Y220850D01*
X690750Y221981D01*
X689810Y223275D01*
X689084Y224700D01*
X688641Y226061D01*
X695961Y226061D01*
X695961Y218741D01*
X694600Y219184D01*
G37*
%LPD*%
%LPC*%
G36*
X364400Y142984D02*
X364400Y142984D01*
X362975Y143710D01*
X361681Y144650D01*
X360550Y145781D01*
X359610Y147075D01*
X358884Y148500D01*
X358441Y149861D01*
X365761Y149861D01*
X365761Y142541D01*
X364400Y142984D01*
G37*
%LPD*%
%LPC*%
G36*
X72300Y523984D02*
X72300Y523984D01*
X70875Y524710D01*
X69581Y525650D01*
X68450Y526781D01*
X67510Y528075D01*
X66784Y529500D01*
X66341Y530861D01*
X73661Y530861D01*
X73661Y523541D01*
X72300Y523984D01*
G37*
%LPD*%
%LPC*%
G36*
X389800Y295384D02*
X389800Y295384D01*
X388375Y296110D01*
X387081Y297050D01*
X385950Y298181D01*
X385010Y299475D01*
X384284Y300900D01*
X383841Y302261D01*
X391161Y302261D01*
X391161Y294941D01*
X389800Y295384D01*
G37*
%LPD*%
%LPC*%
G36*
X919898Y473184D02*
X919898Y473184D01*
X918473Y473910D01*
X917179Y474850D01*
X916048Y475981D01*
X915108Y477275D01*
X914382Y478700D01*
X913939Y480061D01*
X921259Y480061D01*
X921259Y472741D01*
X919898Y473184D01*
G37*
%LPD*%
%LPC*%
G36*
X732281Y687831D02*
X732281Y687831D01*
X732281Y694737D01*
X732392Y694720D01*
X733760Y694275D01*
X735043Y693621D01*
X736207Y692775D01*
X737225Y691757D01*
X738071Y690593D01*
X738725Y689310D01*
X739170Y687942D01*
X739187Y687831D01*
X732281Y687831D01*
G37*
%LPD*%
%LPC*%
G36*
X783081Y687831D02*
X783081Y687831D01*
X783081Y694737D01*
X783192Y694720D01*
X784560Y694275D01*
X785843Y693621D01*
X787007Y692775D01*
X788025Y691757D01*
X788871Y690593D01*
X789525Y689310D01*
X789970Y687942D01*
X789987Y687831D01*
X783081Y687831D01*
G37*
%LPD*%
%LPC*%
G36*
X706881Y687831D02*
X706881Y687831D01*
X706881Y694737D01*
X706992Y694720D01*
X708360Y694275D01*
X709643Y693621D01*
X710807Y692775D01*
X711825Y691757D01*
X712671Y690593D01*
X713325Y689310D01*
X713770Y687942D01*
X713787Y687831D01*
X706881Y687831D01*
G37*
%LPD*%
%LPC*%
G36*
X721313Y687831D02*
X721313Y687831D01*
X721330Y687942D01*
X721775Y689310D01*
X722429Y690593D01*
X723275Y691757D01*
X724293Y692775D01*
X725457Y693621D01*
X726740Y694275D01*
X728108Y694720D01*
X728219Y694737D01*
X728219Y687831D01*
X721313Y687831D01*
G37*
%LPD*%
%LPC*%
G36*
X772113Y687831D02*
X772113Y687831D01*
X772130Y687942D01*
X772575Y689310D01*
X773229Y690593D01*
X774075Y691757D01*
X775093Y692775D01*
X776257Y693621D01*
X777540Y694275D01*
X778908Y694720D01*
X779019Y694737D01*
X779019Y687831D01*
X772113Y687831D01*
G37*
%LPD*%
%LPC*%
G36*
X695913Y687831D02*
X695913Y687831D01*
X695930Y687942D01*
X696375Y689310D01*
X697029Y690593D01*
X697875Y691757D01*
X698893Y692775D01*
X700057Y693621D01*
X701340Y694275D01*
X702708Y694720D01*
X702819Y694737D01*
X702819Y687831D01*
X695913Y687831D01*
G37*
%LPD*%
%LPC*%
G36*
X783081Y683769D02*
X783081Y683769D01*
X789987Y683769D01*
X789970Y683658D01*
X789525Y682290D01*
X788871Y681007D01*
X788025Y679843D01*
X787007Y678825D01*
X785843Y677979D01*
X784560Y677325D01*
X783192Y676880D01*
X783081Y676863D01*
X783081Y683769D01*
G37*
%LPD*%
%LPC*%
G36*
X732281Y683769D02*
X732281Y683769D01*
X739187Y683769D01*
X739170Y683658D01*
X738725Y682290D01*
X738071Y681007D01*
X737225Y679843D01*
X736207Y678825D01*
X735043Y677979D01*
X733760Y677325D01*
X732392Y676880D01*
X732281Y676863D01*
X732281Y683769D01*
G37*
%LPD*%
%LPC*%
G36*
X706881Y683769D02*
X706881Y683769D01*
X713787Y683769D01*
X713770Y683658D01*
X713325Y682290D01*
X712671Y681007D01*
X711825Y679843D01*
X710807Y678825D01*
X709643Y677979D01*
X708360Y677325D01*
X706992Y676880D01*
X706881Y676863D01*
X706881Y683769D01*
G37*
%LPD*%
%LPC*%
G36*
X728108Y676880D02*
X728108Y676880D01*
X726740Y677325D01*
X725457Y677979D01*
X724293Y678825D01*
X723275Y679843D01*
X722429Y681007D01*
X721775Y682290D01*
X721330Y683658D01*
X721313Y683769D01*
X728219Y683769D01*
X728219Y676863D01*
X728108Y676880D01*
G37*
%LPD*%
%LPC*%
G36*
X702708Y676880D02*
X702708Y676880D01*
X701340Y677325D01*
X700057Y677979D01*
X698893Y678825D01*
X697875Y679843D01*
X697029Y681007D01*
X696375Y682290D01*
X695930Y683658D01*
X695913Y683769D01*
X702819Y683769D01*
X702819Y676863D01*
X702708Y676880D01*
G37*
%LPD*%
%LPC*%
G36*
X778908Y676880D02*
X778908Y676880D01*
X777540Y677325D01*
X776257Y677979D01*
X775093Y678825D01*
X774075Y679843D01*
X773229Y681007D01*
X772575Y682290D01*
X772130Y683658D01*
X772113Y683769D01*
X779019Y683769D01*
X779019Y676863D01*
X778908Y676880D01*
G37*
%LPD*%
D10*
X393700Y25400D03*
X419100Y25400D03*
X444500Y25400D03*
X469900Y25400D03*
X495300Y25400D03*
X520700Y25400D03*
X546100Y25400D03*
X571500Y25400D03*
X596900Y25400D03*
X622300Y25400D03*
X622300Y101600D03*
X596900Y101600D03*
X571500Y101600D03*
X546100Y101600D03*
X520700Y101600D03*
X495300Y101600D03*
X469900Y101600D03*
X444500Y101600D03*
X419100Y101600D03*
X393700Y101600D03*
D11*
X368300Y330200D03*
X393700Y330200D03*
X749300Y304800D03*
X723900Y304800D03*
X723900Y203200D03*
X723900Y228600D03*
X254000Y177800D03*
X228600Y177800D03*
D12*
X88900Y101600D03*
D13*
X114300Y101600D03*
X139700Y101600D03*
X165100Y101600D03*
X190500Y101600D03*
X215900Y101600D03*
X241300Y101600D03*
X266700Y101600D03*
X292100Y101600D03*
X317500Y101600D03*
X342900Y101600D03*
D10*
X368300Y152400D03*
X393700Y152400D03*
X419100Y152400D03*
X444500Y152400D03*
X469900Y152400D03*
X495300Y152400D03*
X520700Y152400D03*
X546100Y152400D03*
X571500Y152400D03*
X596900Y152400D03*
X622300Y152400D03*
X647700Y152400D03*
X698500Y152400D03*
X698500Y203200D03*
X698500Y228600D03*
X698500Y279400D03*
X698500Y304800D03*
X647700Y304800D03*
X622300Y304800D03*
X596900Y304800D03*
X571500Y304800D03*
X546100Y304800D03*
X520700Y304800D03*
X495300Y304800D03*
X469900Y304800D03*
X444500Y304800D03*
X419100Y304800D03*
X393700Y304800D03*
X368300Y304800D03*
X673100Y152400D03*
X673100Y304800D03*
D12*
X184150Y685800D03*
D13*
X209550Y685800D03*
X234950Y685800D03*
X260350Y685800D03*
X285750Y685800D03*
X311150Y685800D03*
X704850Y685800D03*
X730250Y685800D03*
X755650Y685800D03*
X781050Y685800D03*
X806450Y685800D03*
X831850Y685800D03*
D11*
X673100Y406400D03*
X647700Y406400D03*
X622300Y406400D03*
X596900Y406400D03*
X571500Y406400D03*
X546100Y406400D03*
X520700Y406400D03*
X495300Y406400D03*
X469900Y406400D03*
X444500Y406400D03*
X419100Y406400D03*
D10*
X50800Y457200D03*
X76200Y457200D03*
X76200Y482600D03*
X76200Y508000D03*
X76200Y533400D03*
X76200Y558800D03*
X50800Y558800D03*
X949198Y558800D03*
X923798Y558800D03*
X923798Y533400D03*
X923798Y508000D03*
X923798Y482600D03*
X923798Y457200D03*
X949198Y457200D03*
D14*
X889000Y444500D03*
X273050Y711200D03*
X254000Y228600D03*
D15*
X723900Y203200D02*
X793750Y203200D01*
D14*
X793750Y203200D03*
X425450Y476250D03*
D16*
X449998Y500798D01*
X449998Y507148D01*
D14*
X449998Y507148D03*
X412750Y476250D03*
D16*
X438150Y501650D01*
X438150Y508000D01*
D14*
X438150Y508000D03*
X400050Y406400D03*
D17*
X400050Y438150D01*
X469900Y508000D01*
D14*
X469900Y508000D03*
M02*
