M48
;GenerationSoftware,Autodesk,EAGLE,8.6.0*%
;CreationDate,2019-04-27T20:13:13Z*%
FMAT,2
ICI,OFF
METRIC,TZ,000.000
T3C0.350
T2C0.813
T1C1.016
%
G90
M71
T1
X49530Y2540
X57150Y40640
X54610Y40640
X52070Y40640
X49530Y40640
X46990Y40640
X44450Y40640
X94920Y45720
X5080Y45720
X7620Y45720
X39370Y2540
X41910Y2540
X44450Y2540
X46990Y2540
X41910Y10160
X52070Y2540
X54610Y2540
X57150Y2540
X59690Y2540
X62230Y2540
X62230Y10160
X59690Y10160
X57150Y10160
X54610Y10160
X52070Y10160
X49530Y10160
X46990Y10160
X44450Y10160
X7620Y48260
X39370Y10160
X36830Y33020
X39370Y33020
X74930Y30480
X72390Y30480
X72390Y20320
X72390Y22860
X25400Y17780
X22860Y17780
X7620Y50800
X7620Y53340
X7620Y55880
X5080Y55880
X94920Y55880
X92380Y55880
X59690Y15240
X92380Y53340
X92380Y50800
X92380Y48260
X92380Y45720
X36830Y15240
X39370Y15240
X41910Y15240
X44450Y15240
X46990Y15240
X49530Y15240
X52070Y15240
X54610Y15240
X57150Y15240
X49530Y30480
X62230Y15240
X64770Y15240
X69850Y15240
X69850Y20320
X69850Y22860
X69850Y27940
X69850Y30480
X64770Y30480
X62230Y30480
X59690Y30480
X57150Y30480
X54610Y30480
X52070Y30480
X46990Y30480
X44450Y30480
X41910Y30480
X39370Y30480
X36830Y30480
X67310Y15240
X67310Y30480
X41910Y40640
X67310Y40640
X64770Y40640
X62230Y40640
X59690Y40640
T2
X26670Y10160
X26035Y68580
X28575Y68580
X31115Y68580
X70485Y68580
X73025Y68580
X24130Y10160
X78105Y68580
X80645Y68580
X83185Y68580
X8890Y10160
X11430Y10160
X13970Y10160
X16510Y10160
X19050Y10160
X21590Y10160
X75565Y68580
X29210Y10160
X31750Y10160
X34290Y10160
X18415Y68580
X20955Y68580
X23495Y68580
T3
X25400Y22860
X79375Y20320
X42545Y47625
X45000Y50715
X41275Y47625
X43815Y50800
X40005Y40640
X46990Y50800
X88900Y44450
X27305Y71120
M30