G04 EAGLE Gerber RS-274X export*
G75*
%MOMM*%
%FSLAX34Y34*%
%LPD*%
%INSolder stop mask CMP*%
%IPPOS*%
%AMOC8*
5,1,8,0,0,1.08239X$1,22.5*%
G01*
%ADD10R,1.203200X1.303200*%
%ADD11R,1.303200X1.203200*%
%ADD12C,2.082800*%
%ADD13R,2.514600X2.209800*%
%ADD14R,2.514600X2.413000*%
%ADD15C,2.755900*%
%ADD16R,2.997200X2.794000*%
%ADD17R,2.514600X2.997200*%
%ADD18R,1.203200X1.253200*%
%ADD19R,1.253200X2.403200*%
%ADD20C,0.668588*%
%ADD21C,0.667488*%
%ADD22R,2.363200X0.963200*%
%ADD23C,0.914400*%
%ADD24R,2.184400X0.762000*%
%ADD25R,0.610000X1.672400*%
%ADD26R,1.676400X3.403600*%
%ADD27R,1.524000X0.762000*%
%ADD28C,0.959600*%
%ADD29C,1.209600*%
%ADD30C,1.059600*%


D10*
X592700Y390525D03*
X575700Y390525D03*
D11*
X469900Y453000D03*
X469900Y436000D03*
X279400Y322825D03*
X279400Y305825D03*
D10*
X297425Y133350D03*
X280425Y133350D03*
D11*
X266700Y99450D03*
X266700Y116450D03*
X384175Y153425D03*
X384175Y170425D03*
D10*
X456175Y133350D03*
X439175Y133350D03*
D12*
X615950Y415925D03*
X615950Y390525D03*
D13*
X544570Y710819D03*
D14*
X544570Y682879D03*
D13*
X623570Y692023D03*
D14*
X623570Y664083D03*
D15*
X583946Y682117D03*
X583946Y612013D03*
D16*
X591690Y549021D03*
D17*
X544570Y596549D03*
D12*
X617220Y329565D03*
X617220Y304165D03*
X615950Y254000D03*
X615950Y228600D03*
D18*
X314325Y294650D03*
D19*
X329075Y279400D03*
X299575Y279400D03*
D18*
X381000Y391150D03*
D19*
X366250Y406400D03*
X395750Y406400D03*
D12*
X617220Y31115D03*
X617220Y56515D03*
X617220Y81915D03*
X617220Y107315D03*
X617220Y132715D03*
X617220Y158115D03*
X617220Y183515D03*
D10*
X261375Y342900D03*
X278375Y342900D03*
D11*
X266700Y270900D03*
X266700Y287900D03*
X241300Y116450D03*
X241300Y99450D03*
D10*
X354575Y69850D03*
X337575Y69850D03*
D20*
X526427Y458748D02*
X539373Y458748D01*
X539373Y454102D01*
X526427Y454102D01*
X526427Y458748D01*
X526427Y481748D02*
X539373Y481748D01*
X539373Y477102D01*
X526427Y477102D01*
X526427Y481748D01*
X526427Y504748D02*
X539373Y504748D01*
X539373Y500102D01*
X526427Y500102D01*
X526427Y504748D01*
D21*
X463921Y493054D02*
X463921Y465796D01*
X463921Y493054D02*
X476879Y493054D01*
X476879Y465796D01*
X463921Y465796D01*
X463921Y472137D02*
X476879Y472137D01*
X476879Y478478D02*
X463921Y478478D01*
X463921Y484819D02*
X476879Y484819D01*
X476879Y491160D02*
X463921Y491160D01*
D22*
X320675Y368300D03*
X320675Y355600D03*
X320675Y342900D03*
X320675Y330200D03*
X320675Y317500D03*
X374275Y317500D03*
X374275Y330200D03*
X374275Y342900D03*
X374275Y355600D03*
X374275Y368300D03*
D23*
X302895Y368300D03*
X302895Y355600D03*
X302895Y330200D03*
X344805Y368300D03*
X354965Y368300D03*
X344805Y355600D03*
X354965Y355600D03*
X354965Y342900D03*
X344805Y342900D03*
X354965Y330200D03*
X344805Y330200D03*
X354965Y317500D03*
X344805Y317500D03*
X391795Y355600D03*
X391795Y342900D03*
X391795Y330200D03*
X391795Y317500D03*
D24*
X330962Y130175D03*
X330962Y117475D03*
X330962Y104775D03*
X330962Y92075D03*
X380238Y92075D03*
X380238Y104775D03*
X380238Y117475D03*
X380238Y130175D03*
D25*
X530675Y146188D03*
X524175Y146188D03*
X517675Y146188D03*
X511175Y146188D03*
X504675Y146188D03*
X498175Y146188D03*
X491675Y146188D03*
X491675Y88762D03*
X498175Y88762D03*
X504675Y88762D03*
X511175Y88762D03*
X517675Y88762D03*
X524175Y88762D03*
X530675Y88762D03*
D12*
X615950Y492125D03*
X615950Y466725D03*
D11*
X419100Y58665D03*
X419100Y41665D03*
X318770Y45965D03*
X318770Y28965D03*
X454025Y93590D03*
X454025Y76590D03*
X431165Y76590D03*
X431165Y93590D03*
D26*
X464820Y564388D03*
X464820Y620522D03*
D27*
X489966Y379705D03*
X489966Y370205D03*
X489966Y360705D03*
X515874Y360705D03*
X515874Y379705D03*
D10*
X468240Y379095D03*
X451240Y379095D03*
X519040Y403225D03*
X502040Y403225D03*
D11*
X525145Y331715D03*
X525145Y314715D03*
D10*
X378850Y57150D03*
X395850Y57150D03*
D11*
X476250Y93590D03*
X476250Y76590D03*
D28*
X409575Y406400D03*
X409575Y396875D03*
X409575Y415925D03*
D29*
X520700Y710819D03*
X520700Y682879D03*
X532900Y468219D03*
X469900Y419100D03*
X488521Y403225D03*
X451240Y393700D03*
X508000Y314715D03*
X575700Y406400D03*
D30*
X311150Y92075D03*
X261375Y365125D03*
X285750Y279400D03*
X285750Y288925D03*
X285750Y269875D03*
X342900Y279400D03*
X342900Y288925D03*
X342900Y269875D03*
X384175Y184150D03*
X318770Y15875D03*
X396875Y69850D03*
X454025Y63500D03*
X473075Y63500D03*
X508000Y66675D03*
X511175Y161925D03*
X425450Y133350D03*
D28*
X355600Y406400D03*
X355600Y415925D03*
X355600Y396875D03*
X476802Y369653D03*
D30*
X412750Y127000D03*
X406400Y76200D03*
M02*
