G04 EAGLE Gerber RS-274X export*
G75*
%MOMM*%
%FSLAX34Y34*%
%LPD*%
%INSolder stop mask SOL*%
%IPPOS*%
%AMOC8*
5,1,8,0,0,1.08239X$1,22.5*%
G01*
%ADD10C,2.082800*%
%ADD11C,2.755900*%
%ADD12C,0.914400*%
%ADD13C,0.959600*%
%ADD14C,1.209600*%
%ADD15C,1.059600*%


D10*
X615950Y415925D03*
X615950Y390525D03*
D11*
X583946Y682117D03*
X583946Y612013D03*
D10*
X617220Y329565D03*
X617220Y304165D03*
X615950Y254000D03*
X615950Y228600D03*
X617220Y31115D03*
X617220Y56515D03*
X617220Y81915D03*
X617220Y107315D03*
X617220Y132715D03*
X617220Y158115D03*
X617220Y183515D03*
D12*
X302895Y368300D03*
X302895Y355600D03*
X302895Y330200D03*
X344805Y368300D03*
X354965Y368300D03*
X344805Y355600D03*
X354965Y355600D03*
X354965Y342900D03*
X344805Y342900D03*
X354965Y330200D03*
X344805Y330200D03*
X354965Y317500D03*
X344805Y317500D03*
X391795Y355600D03*
X391795Y342900D03*
X391795Y330200D03*
X391795Y317500D03*
D10*
X615950Y492125D03*
X615950Y466725D03*
D13*
X409575Y406400D03*
X409575Y396875D03*
X409575Y415925D03*
D14*
X520700Y710819D03*
X520700Y682879D03*
X532900Y468219D03*
X469900Y419100D03*
X488521Y403225D03*
X451240Y393700D03*
X508000Y314715D03*
X575700Y406400D03*
D15*
X311150Y92075D03*
X261375Y365125D03*
X285750Y279400D03*
X285750Y288925D03*
X285750Y269875D03*
X342900Y279400D03*
X342900Y288925D03*
X342900Y269875D03*
X384175Y184150D03*
X318770Y15875D03*
X396875Y69850D03*
X454025Y63500D03*
X473075Y63500D03*
X508000Y66675D03*
X511175Y161925D03*
X425450Y133350D03*
D13*
X355600Y406400D03*
X355600Y415925D03*
X355600Y396875D03*
X476802Y369653D03*
D15*
X412750Y127000D03*
X406400Y76200D03*
M02*
