G04 EAGLE Gerber RS-274X export*
G75*
%MOMM*%
%FSLAX34Y34*%
%LPD*%
%INSolder side*%
%IPPOS*%
%AMOC8*
5,1,8,0,0,1.08239X$1,22.5*%
G01*
%ADD10C,1.879600*%
%ADD11C,2.552700*%
%ADD12C,0.711200*%
%ADD13C,0.756400*%
%ADD14C,1.006400*%
%ADD15C,0.856400*%
%ADD16C,0.406400*%

G36*
X989098Y10164D02*
X989098Y10164D01*
X989117Y10162D01*
X989219Y10184D01*
X989321Y10200D01*
X989338Y10210D01*
X989358Y10214D01*
X989447Y10267D01*
X989538Y10316D01*
X989552Y10330D01*
X989569Y10340D01*
X989636Y10419D01*
X989708Y10494D01*
X989716Y10512D01*
X989729Y10527D01*
X989768Y10623D01*
X989811Y10717D01*
X989813Y10737D01*
X989821Y10755D01*
X989839Y10922D01*
X989839Y739078D01*
X989836Y739098D01*
X989838Y739117D01*
X989816Y739219D01*
X989800Y739321D01*
X989790Y739338D01*
X989786Y739358D01*
X989733Y739447D01*
X989684Y739538D01*
X989670Y739552D01*
X989660Y739569D01*
X989581Y739636D01*
X989506Y739708D01*
X989488Y739716D01*
X989473Y739729D01*
X989377Y739768D01*
X989283Y739811D01*
X989263Y739813D01*
X989245Y739821D01*
X989078Y739839D01*
X10922Y739839D01*
X10902Y739836D01*
X10883Y739838D01*
X10781Y739816D01*
X10679Y739800D01*
X10662Y739790D01*
X10642Y739786D01*
X10553Y739733D01*
X10462Y739684D01*
X10448Y739670D01*
X10431Y739660D01*
X10364Y739581D01*
X10292Y739506D01*
X10284Y739488D01*
X10271Y739473D01*
X10232Y739377D01*
X10189Y739283D01*
X10187Y739263D01*
X10179Y739245D01*
X10161Y739078D01*
X10161Y10922D01*
X10164Y10902D01*
X10162Y10883D01*
X10184Y10781D01*
X10200Y10679D01*
X10210Y10662D01*
X10214Y10642D01*
X10267Y10553D01*
X10316Y10462D01*
X10330Y10448D01*
X10340Y10431D01*
X10419Y10364D01*
X10494Y10292D01*
X10512Y10284D01*
X10527Y10271D01*
X10623Y10232D01*
X10717Y10189D01*
X10737Y10187D01*
X10755Y10179D01*
X10922Y10161D01*
X989078Y10161D01*
X989098Y10164D01*
G37*
%LPC*%
G36*
X581104Y667829D02*
X581104Y667829D01*
X575852Y670004D01*
X571833Y674023D01*
X569658Y679275D01*
X569658Y684959D01*
X571833Y690211D01*
X575852Y694230D01*
X581104Y696405D01*
X586788Y696405D01*
X592040Y694230D01*
X596059Y690211D01*
X598234Y684959D01*
X598234Y679275D01*
X596059Y674023D01*
X592040Y670004D01*
X586788Y667829D01*
X581104Y667829D01*
G37*
%LPD*%
%LPC*%
G36*
X581104Y597725D02*
X581104Y597725D01*
X575852Y599900D01*
X571833Y603919D01*
X569658Y609171D01*
X569658Y614855D01*
X571833Y620107D01*
X575852Y624126D01*
X581104Y626301D01*
X586788Y626301D01*
X592040Y624126D01*
X596059Y620107D01*
X598234Y614855D01*
X598234Y609171D01*
X596059Y603919D01*
X592040Y599900D01*
X586788Y597725D01*
X581104Y597725D01*
G37*
%LPD*%
%LPC*%
G36*
X405245Y70393D02*
X405245Y70393D01*
X403111Y71277D01*
X401477Y72911D01*
X400593Y75045D01*
X400593Y77355D01*
X401477Y79489D01*
X402620Y80632D01*
X402673Y80706D01*
X402733Y80776D01*
X402745Y80806D01*
X402764Y80832D01*
X402791Y80919D01*
X402825Y81004D01*
X402829Y81045D01*
X402836Y81067D01*
X402835Y81099D01*
X402843Y81171D01*
X402843Y122123D01*
X406720Y126000D01*
X406773Y126074D01*
X406833Y126144D01*
X406845Y126174D01*
X406864Y126200D01*
X406891Y126287D01*
X406925Y126372D01*
X406929Y126413D01*
X406936Y126435D01*
X406935Y126467D01*
X406943Y126539D01*
X406943Y128155D01*
X407827Y130289D01*
X409461Y131923D01*
X411595Y132807D01*
X413905Y132807D01*
X416039Y131923D01*
X417673Y130289D01*
X418557Y128155D01*
X418557Y125845D01*
X417673Y123711D01*
X416039Y122077D01*
X413905Y121193D01*
X412289Y121193D01*
X412198Y121179D01*
X412108Y121171D01*
X412078Y121159D01*
X412046Y121154D01*
X411965Y121111D01*
X411881Y121075D01*
X411849Y121049D01*
X411828Y121038D01*
X411806Y121015D01*
X411750Y120970D01*
X410180Y119400D01*
X410127Y119326D01*
X410067Y119256D01*
X410055Y119226D01*
X410036Y119200D01*
X410009Y119113D01*
X409975Y119028D01*
X409971Y118987D01*
X409964Y118965D01*
X409965Y118933D01*
X409957Y118861D01*
X409957Y81171D01*
X409971Y81080D01*
X409979Y80990D01*
X409991Y80960D01*
X409996Y80928D01*
X410039Y80847D01*
X410075Y80763D01*
X410101Y80731D01*
X410112Y80710D01*
X410135Y80688D01*
X410180Y80632D01*
X411323Y79489D01*
X412207Y77355D01*
X412207Y75045D01*
X411323Y72911D01*
X409689Y71277D01*
X407555Y70393D01*
X405245Y70393D01*
G37*
%LPD*%
%LPC*%
G36*
X615047Y96392D02*
X615047Y96392D01*
X611033Y98055D01*
X607960Y101128D01*
X606297Y105142D01*
X606297Y109488D01*
X607960Y113502D01*
X611033Y116575D01*
X615047Y118238D01*
X619393Y118238D01*
X623407Y116575D01*
X626480Y113502D01*
X628143Y109488D01*
X628143Y105142D01*
X626480Y101128D01*
X623407Y98055D01*
X619393Y96392D01*
X615047Y96392D01*
G37*
%LPD*%
%LPC*%
G36*
X615047Y147192D02*
X615047Y147192D01*
X611033Y148855D01*
X607960Y151928D01*
X606297Y155942D01*
X606297Y160288D01*
X607960Y164302D01*
X611033Y167375D01*
X615047Y169038D01*
X619393Y169038D01*
X623407Y167375D01*
X626480Y164302D01*
X628143Y160288D01*
X628143Y155942D01*
X626480Y151928D01*
X623407Y148855D01*
X619393Y147192D01*
X615047Y147192D01*
G37*
%LPD*%
%LPC*%
G36*
X615047Y293242D02*
X615047Y293242D01*
X611033Y294905D01*
X607960Y297978D01*
X606297Y301992D01*
X606297Y306338D01*
X607960Y310352D01*
X611033Y313425D01*
X615047Y315088D01*
X619393Y315088D01*
X623407Y313425D01*
X626480Y310352D01*
X628143Y306338D01*
X628143Y301992D01*
X626480Y297978D01*
X623407Y294905D01*
X619393Y293242D01*
X615047Y293242D01*
G37*
%LPD*%
%LPC*%
G36*
X613777Y217677D02*
X613777Y217677D01*
X609763Y219340D01*
X606690Y222413D01*
X605027Y226427D01*
X605027Y230773D01*
X606690Y234787D01*
X609763Y237860D01*
X613777Y239523D01*
X618123Y239523D01*
X622137Y237860D01*
X625210Y234787D01*
X626873Y230773D01*
X626873Y226427D01*
X625210Y222413D01*
X622137Y219340D01*
X618123Y217677D01*
X613777Y217677D01*
G37*
%LPD*%
%LPC*%
G36*
X615047Y172592D02*
X615047Y172592D01*
X611033Y174255D01*
X607960Y177328D01*
X606297Y181342D01*
X606297Y185688D01*
X607960Y189702D01*
X611033Y192775D01*
X615047Y194438D01*
X619393Y194438D01*
X623407Y192775D01*
X626480Y189702D01*
X628143Y185688D01*
X628143Y181342D01*
X626480Y177328D01*
X623407Y174255D01*
X619393Y172592D01*
X615047Y172592D01*
G37*
%LPD*%
%LPC*%
G36*
X615047Y121792D02*
X615047Y121792D01*
X611033Y123455D01*
X607960Y126528D01*
X606297Y130542D01*
X606297Y134888D01*
X607960Y138902D01*
X611033Y141975D01*
X615047Y143638D01*
X619393Y143638D01*
X623407Y141975D01*
X626480Y138902D01*
X628143Y134888D01*
X628143Y130542D01*
X626480Y126528D01*
X623407Y123455D01*
X619393Y121792D01*
X615047Y121792D01*
G37*
%LPD*%
%LPC*%
G36*
X613777Y481202D02*
X613777Y481202D01*
X609763Y482865D01*
X606690Y485938D01*
X605027Y489952D01*
X605027Y494298D01*
X606690Y498312D01*
X609763Y501385D01*
X613777Y503048D01*
X618123Y503048D01*
X622137Y501385D01*
X625210Y498312D01*
X626873Y494298D01*
X626873Y489952D01*
X625210Y485938D01*
X622137Y482865D01*
X618123Y481202D01*
X613777Y481202D01*
G37*
%LPD*%
%LPC*%
G36*
X615047Y70992D02*
X615047Y70992D01*
X611033Y72655D01*
X607960Y75728D01*
X606297Y79742D01*
X606297Y84088D01*
X607960Y88102D01*
X611033Y91175D01*
X615047Y92838D01*
X619393Y92838D01*
X623407Y91175D01*
X626480Y88102D01*
X628143Y84088D01*
X628143Y79742D01*
X626480Y75728D01*
X623407Y72655D01*
X619393Y70992D01*
X615047Y70992D01*
G37*
%LPD*%
%LPC*%
G36*
X613777Y379602D02*
X613777Y379602D01*
X609763Y381265D01*
X606690Y384338D01*
X605027Y388352D01*
X605027Y392698D01*
X606690Y396712D01*
X609763Y399785D01*
X613777Y401448D01*
X618123Y401448D01*
X622137Y399785D01*
X625210Y396712D01*
X626873Y392698D01*
X626873Y388352D01*
X625210Y384338D01*
X622137Y381265D01*
X618123Y379602D01*
X613777Y379602D01*
G37*
%LPD*%
%LPC*%
G36*
X615047Y45592D02*
X615047Y45592D01*
X611033Y47255D01*
X607960Y50328D01*
X606297Y54342D01*
X606297Y58688D01*
X607960Y62702D01*
X611033Y65775D01*
X615047Y67438D01*
X619393Y67438D01*
X623407Y65775D01*
X626480Y62702D01*
X628143Y58688D01*
X628143Y54342D01*
X626480Y50328D01*
X623407Y47255D01*
X619393Y45592D01*
X615047Y45592D01*
G37*
%LPD*%
%LPC*%
G36*
X345566Y343661D02*
X345566Y343661D01*
X345566Y354839D01*
X354204Y354839D01*
X354204Y343661D01*
X345566Y343661D01*
G37*
%LPD*%
%LPC*%
G36*
X345566Y356361D02*
X345566Y356361D01*
X345566Y367539D01*
X354204Y367539D01*
X354204Y356361D01*
X345566Y356361D01*
G37*
%LPD*%
%LPC*%
G36*
X345566Y318261D02*
X345566Y318261D01*
X345566Y329439D01*
X354204Y329439D01*
X354204Y318261D01*
X345566Y318261D01*
G37*
%LPD*%
%LPC*%
G36*
X345566Y330961D02*
X345566Y330961D01*
X345566Y342139D01*
X354204Y342139D01*
X354204Y330961D01*
X345566Y330961D01*
G37*
%LPD*%
%LPC*%
G36*
X617473Y417448D02*
X617473Y417448D01*
X617473Y427771D01*
X618746Y427570D01*
X620533Y426989D01*
X622207Y426136D01*
X623728Y425031D01*
X625056Y423703D01*
X626161Y422182D01*
X627014Y420508D01*
X627595Y418721D01*
X627796Y417448D01*
X617473Y417448D01*
G37*
%LPD*%
%LPC*%
G36*
X618743Y331088D02*
X618743Y331088D01*
X618743Y341411D01*
X620016Y341210D01*
X621803Y340629D01*
X623477Y339776D01*
X624998Y338671D01*
X626326Y337343D01*
X627431Y335822D01*
X628284Y334148D01*
X628865Y332361D01*
X629066Y331088D01*
X618743Y331088D01*
G37*
%LPD*%
%LPC*%
G36*
X617473Y468248D02*
X617473Y468248D01*
X617473Y478571D01*
X618746Y478370D01*
X620533Y477789D01*
X622207Y476936D01*
X623728Y475831D01*
X625056Y474503D01*
X626161Y472982D01*
X627014Y471308D01*
X627595Y469521D01*
X627796Y468248D01*
X617473Y468248D01*
G37*
%LPD*%
%LPC*%
G36*
X618743Y32638D02*
X618743Y32638D01*
X618743Y42961D01*
X620016Y42760D01*
X621803Y42179D01*
X623477Y41326D01*
X624998Y40221D01*
X626326Y38893D01*
X627431Y37372D01*
X628284Y35698D01*
X628865Y33911D01*
X629066Y32638D01*
X618743Y32638D01*
G37*
%LPD*%
%LPC*%
G36*
X617473Y255523D02*
X617473Y255523D01*
X617473Y265846D01*
X618746Y265645D01*
X620533Y265064D01*
X622207Y264211D01*
X623728Y263106D01*
X625056Y261778D01*
X626161Y260257D01*
X627014Y258583D01*
X627595Y256796D01*
X627796Y255523D01*
X617473Y255523D01*
G37*
%LPD*%
%LPC*%
G36*
X617473Y252477D02*
X617473Y252477D01*
X627796Y252477D01*
X627595Y251204D01*
X627014Y249417D01*
X626161Y247743D01*
X625056Y246222D01*
X623728Y244894D01*
X622207Y243789D01*
X620533Y242936D01*
X618746Y242355D01*
X617473Y242154D01*
X617473Y252477D01*
G37*
%LPD*%
%LPC*%
G36*
X604104Y255523D02*
X604104Y255523D01*
X604305Y256796D01*
X604886Y258583D01*
X605739Y260257D01*
X606844Y261778D01*
X608172Y263106D01*
X609693Y264211D01*
X611367Y265064D01*
X613154Y265645D01*
X614427Y265846D01*
X614427Y255523D01*
X604104Y255523D01*
G37*
%LPD*%
%LPC*%
G36*
X617473Y465202D02*
X617473Y465202D01*
X627796Y465202D01*
X627595Y463929D01*
X627014Y462142D01*
X626161Y460468D01*
X625056Y458947D01*
X623728Y457619D01*
X622207Y456514D01*
X620533Y455661D01*
X618746Y455080D01*
X617473Y454879D01*
X617473Y465202D01*
G37*
%LPD*%
%LPC*%
G36*
X618743Y29592D02*
X618743Y29592D01*
X629066Y29592D01*
X628865Y28319D01*
X628284Y26532D01*
X627431Y24858D01*
X626326Y23337D01*
X624998Y22009D01*
X623477Y20904D01*
X621803Y20051D01*
X620016Y19470D01*
X618743Y19269D01*
X618743Y29592D01*
G37*
%LPD*%
%LPC*%
G36*
X618743Y328042D02*
X618743Y328042D01*
X629066Y328042D01*
X628865Y326769D01*
X628284Y324982D01*
X627431Y323308D01*
X626326Y321787D01*
X624998Y320459D01*
X623477Y319354D01*
X621803Y318501D01*
X620016Y317920D01*
X618743Y317719D01*
X618743Y328042D01*
G37*
%LPD*%
%LPC*%
G36*
X605374Y32638D02*
X605374Y32638D01*
X605575Y33911D01*
X606156Y35698D01*
X607009Y37372D01*
X608114Y38893D01*
X609442Y40221D01*
X610963Y41326D01*
X612637Y42179D01*
X614424Y42760D01*
X615697Y42961D01*
X615697Y32638D01*
X605374Y32638D01*
G37*
%LPD*%
%LPC*%
G36*
X605374Y331088D02*
X605374Y331088D01*
X605575Y332361D01*
X606156Y334148D01*
X607009Y335822D01*
X608114Y337343D01*
X609442Y338671D01*
X610963Y339776D01*
X612637Y340629D01*
X614424Y341210D01*
X615697Y341411D01*
X615697Y331088D01*
X605374Y331088D01*
G37*
%LPD*%
%LPC*%
G36*
X617473Y414402D02*
X617473Y414402D01*
X627796Y414402D01*
X627595Y413129D01*
X627014Y411342D01*
X626161Y409668D01*
X625056Y408147D01*
X623728Y406819D01*
X622207Y405714D01*
X620533Y404861D01*
X618746Y404280D01*
X617473Y404079D01*
X617473Y414402D01*
G37*
%LPD*%
%LPC*%
G36*
X604104Y417448D02*
X604104Y417448D01*
X604305Y418721D01*
X604886Y420508D01*
X605739Y422182D01*
X606844Y423703D01*
X608172Y425031D01*
X609693Y426136D01*
X611367Y426989D01*
X613154Y427570D01*
X614427Y427771D01*
X614427Y417448D01*
X604104Y417448D01*
G37*
%LPD*%
%LPC*%
G36*
X604104Y468248D02*
X604104Y468248D01*
X604305Y469521D01*
X604886Y471308D01*
X605739Y472982D01*
X606844Y474503D01*
X608172Y475831D01*
X609693Y476936D01*
X611367Y477789D01*
X613154Y478370D01*
X614427Y478571D01*
X614427Y468248D01*
X604104Y468248D01*
G37*
%LPD*%
%LPC*%
G36*
X614424Y19470D02*
X614424Y19470D01*
X612637Y20051D01*
X610963Y20904D01*
X609442Y22009D01*
X608114Y23337D01*
X607009Y24858D01*
X606156Y26532D01*
X605575Y28319D01*
X605374Y29592D01*
X615697Y29592D01*
X615697Y19269D01*
X614424Y19470D01*
G37*
%LPD*%
%LPC*%
G36*
X614424Y317920D02*
X614424Y317920D01*
X612637Y318501D01*
X610963Y319354D01*
X609442Y320459D01*
X608114Y321787D01*
X607009Y323308D01*
X606156Y324982D01*
X605575Y326769D01*
X605374Y328042D01*
X615697Y328042D01*
X615697Y317719D01*
X614424Y317920D01*
G37*
%LPD*%
%LPC*%
G36*
X613154Y242355D02*
X613154Y242355D01*
X611367Y242936D01*
X609693Y243789D01*
X608172Y244894D01*
X606844Y246222D01*
X605739Y247743D01*
X604886Y249417D01*
X604305Y251204D01*
X604104Y252477D01*
X614427Y252477D01*
X614427Y242154D01*
X613154Y242355D01*
G37*
%LPD*%
%LPC*%
G36*
X613154Y455080D02*
X613154Y455080D01*
X611367Y455661D01*
X609693Y456514D01*
X608172Y457619D01*
X606844Y458947D01*
X605739Y460468D01*
X604886Y462142D01*
X604305Y463929D01*
X604104Y465202D01*
X614427Y465202D01*
X614427Y454879D01*
X613154Y455080D01*
G37*
%LPD*%
%LPC*%
G36*
X613154Y404280D02*
X613154Y404280D01*
X611367Y404861D01*
X609693Y405714D01*
X608172Y406819D01*
X606844Y408147D01*
X605739Y409668D01*
X604886Y411342D01*
X604305Y413129D01*
X604104Y414402D01*
X614427Y414402D01*
X614427Y404079D01*
X613154Y404280D01*
G37*
%LPD*%
%LPC*%
G36*
X355726Y330961D02*
X355726Y330961D01*
X355726Y342139D01*
X361030Y342139D01*
X360827Y341122D01*
X360368Y340012D01*
X359701Y339013D01*
X358852Y338164D01*
X357853Y337497D01*
X357264Y337253D01*
X357203Y337216D01*
X357138Y337186D01*
X357099Y337151D01*
X357055Y337124D01*
X357009Y337068D01*
X356957Y337020D01*
X356932Y336974D01*
X356898Y336934D01*
X356873Y336867D01*
X356838Y336804D01*
X356829Y336753D01*
X356810Y336705D01*
X356807Y336633D01*
X356794Y336562D01*
X356802Y336511D01*
X356800Y336459D01*
X356820Y336390D01*
X356830Y336319D01*
X356854Y336273D01*
X356868Y336223D01*
X356909Y336164D01*
X356942Y336100D01*
X356979Y336063D01*
X357009Y336021D01*
X357066Y335978D01*
X357117Y335928D01*
X357180Y335893D01*
X357206Y335874D01*
X357228Y335867D01*
X357264Y335847D01*
X357853Y335603D01*
X358852Y334936D01*
X359701Y334087D01*
X360368Y333088D01*
X360827Y331978D01*
X361030Y330961D01*
X355726Y330961D01*
G37*
%LPD*%
%LPC*%
G36*
X392556Y343661D02*
X392556Y343661D01*
X392556Y354839D01*
X397860Y354839D01*
X397657Y353822D01*
X397198Y352712D01*
X396531Y351713D01*
X395682Y350864D01*
X394683Y350197D01*
X394094Y349953D01*
X394033Y349916D01*
X393968Y349886D01*
X393929Y349851D01*
X393885Y349824D01*
X393839Y349769D01*
X393787Y349720D01*
X393761Y349674D01*
X393728Y349634D01*
X393703Y349567D01*
X393668Y349504D01*
X393659Y349453D01*
X393640Y349405D01*
X393637Y349333D01*
X393624Y349262D01*
X393632Y349211D01*
X393630Y349159D01*
X393650Y349090D01*
X393660Y349019D01*
X393684Y348973D01*
X393698Y348923D01*
X393739Y348864D01*
X393772Y348800D01*
X393809Y348763D01*
X393838Y348721D01*
X393896Y348678D01*
X393947Y348628D01*
X394010Y348593D01*
X394036Y348574D01*
X394058Y348567D01*
X394094Y348547D01*
X394683Y348303D01*
X395682Y347636D01*
X396531Y346787D01*
X397198Y345788D01*
X397657Y344678D01*
X397860Y343661D01*
X392556Y343661D01*
G37*
%LPD*%
%LPC*%
G36*
X355726Y343661D02*
X355726Y343661D01*
X355726Y354839D01*
X361030Y354839D01*
X360827Y353822D01*
X360368Y352712D01*
X359701Y351713D01*
X358852Y350864D01*
X357853Y350197D01*
X357264Y349953D01*
X357203Y349916D01*
X357138Y349886D01*
X357099Y349851D01*
X357055Y349824D01*
X357009Y349769D01*
X356957Y349720D01*
X356931Y349674D01*
X356898Y349634D01*
X356873Y349567D01*
X356838Y349504D01*
X356829Y349453D01*
X356810Y349405D01*
X356807Y349333D01*
X356794Y349262D01*
X356802Y349211D01*
X356800Y349159D01*
X356820Y349090D01*
X356830Y349019D01*
X356854Y348973D01*
X356868Y348923D01*
X356909Y348864D01*
X356942Y348800D01*
X356979Y348763D01*
X357008Y348721D01*
X357066Y348678D01*
X357117Y348628D01*
X357180Y348593D01*
X357206Y348574D01*
X357228Y348567D01*
X357264Y348547D01*
X357853Y348303D01*
X358852Y347636D01*
X359701Y346787D01*
X360368Y345788D01*
X360827Y344678D01*
X361030Y343661D01*
X355726Y343661D01*
G37*
%LPD*%
%LPC*%
G36*
X355726Y356361D02*
X355726Y356361D01*
X355726Y367539D01*
X361030Y367539D01*
X360827Y366522D01*
X360368Y365412D01*
X359701Y364413D01*
X358852Y363564D01*
X357853Y362897D01*
X357264Y362653D01*
X357203Y362616D01*
X357138Y362586D01*
X357099Y362551D01*
X357055Y362524D01*
X357009Y362469D01*
X356957Y362420D01*
X356931Y362374D01*
X356898Y362334D01*
X356873Y362267D01*
X356838Y362204D01*
X356829Y362153D01*
X356810Y362105D01*
X356807Y362033D01*
X356794Y361962D01*
X356802Y361911D01*
X356800Y361859D01*
X356820Y361790D01*
X356830Y361719D01*
X356854Y361673D01*
X356868Y361623D01*
X356909Y361564D01*
X356942Y361500D01*
X356979Y361463D01*
X357008Y361421D01*
X357066Y361378D01*
X357117Y361328D01*
X357180Y361293D01*
X357206Y361274D01*
X357228Y361267D01*
X357264Y361247D01*
X357853Y361003D01*
X358852Y360336D01*
X359701Y359487D01*
X360368Y358488D01*
X360827Y357378D01*
X361030Y356361D01*
X355726Y356361D01*
G37*
%LPD*%
%LPC*%
G36*
X392556Y330961D02*
X392556Y330961D01*
X392556Y342139D01*
X397860Y342139D01*
X397657Y341122D01*
X397198Y340012D01*
X396531Y339013D01*
X395682Y338164D01*
X394683Y337497D01*
X394094Y337253D01*
X394033Y337216D01*
X393968Y337186D01*
X393929Y337151D01*
X393885Y337124D01*
X393839Y337068D01*
X393787Y337020D01*
X393762Y336974D01*
X393728Y336934D01*
X393703Y336867D01*
X393668Y336804D01*
X393659Y336753D01*
X393640Y336705D01*
X393637Y336633D01*
X393624Y336562D01*
X393632Y336511D01*
X393630Y336459D01*
X393650Y336390D01*
X393660Y336319D01*
X393684Y336273D01*
X393698Y336223D01*
X393739Y336164D01*
X393772Y336100D01*
X393809Y336063D01*
X393838Y336021D01*
X393896Y335978D01*
X393947Y335928D01*
X394010Y335893D01*
X394036Y335874D01*
X394058Y335866D01*
X394094Y335847D01*
X394683Y335603D01*
X395682Y334936D01*
X396531Y334087D01*
X397198Y333088D01*
X397657Y331978D01*
X397860Y330961D01*
X392556Y330961D01*
G37*
%LPD*%
%LPC*%
G36*
X355726Y318261D02*
X355726Y318261D01*
X355726Y329439D01*
X361030Y329439D01*
X360827Y328422D01*
X360368Y327312D01*
X359701Y326313D01*
X358852Y325464D01*
X357853Y324797D01*
X357264Y324553D01*
X357203Y324516D01*
X357138Y324486D01*
X357099Y324451D01*
X357055Y324424D01*
X357009Y324369D01*
X356957Y324320D01*
X356931Y324274D01*
X356898Y324234D01*
X356873Y324167D01*
X356838Y324104D01*
X356829Y324053D01*
X356810Y324005D01*
X356807Y323933D01*
X356794Y323862D01*
X356802Y323811D01*
X356800Y323759D01*
X356820Y323690D01*
X356830Y323619D01*
X356854Y323573D01*
X356868Y323523D01*
X356909Y323464D01*
X356942Y323400D01*
X356979Y323363D01*
X357008Y323321D01*
X357066Y323278D01*
X357117Y323228D01*
X357180Y323193D01*
X357206Y323174D01*
X357228Y323167D01*
X357264Y323147D01*
X357853Y322903D01*
X358852Y322236D01*
X359701Y321387D01*
X360368Y320388D01*
X360827Y319278D01*
X361030Y318261D01*
X355726Y318261D01*
G37*
%LPD*%
%LPC*%
G36*
X392556Y318261D02*
X392556Y318261D01*
X392556Y329439D01*
X397860Y329439D01*
X397657Y328422D01*
X397198Y327312D01*
X396531Y326313D01*
X395682Y325464D01*
X394683Y324797D01*
X394094Y324553D01*
X394033Y324516D01*
X393968Y324486D01*
X393929Y324451D01*
X393885Y324424D01*
X393839Y324369D01*
X393787Y324320D01*
X393761Y324274D01*
X393728Y324234D01*
X393703Y324167D01*
X393668Y324104D01*
X393659Y324053D01*
X393640Y324005D01*
X393637Y323933D01*
X393624Y323862D01*
X393632Y323811D01*
X393630Y323759D01*
X393650Y323690D01*
X393660Y323619D01*
X393684Y323573D01*
X393698Y323523D01*
X393739Y323464D01*
X393772Y323400D01*
X393809Y323363D01*
X393838Y323321D01*
X393896Y323278D01*
X393947Y323228D01*
X394010Y323193D01*
X394036Y323174D01*
X394058Y323167D01*
X394094Y323147D01*
X394683Y322903D01*
X395682Y322236D01*
X396531Y321387D01*
X397198Y320388D01*
X397657Y319278D01*
X397860Y318261D01*
X392556Y318261D01*
G37*
%LPD*%
%LPC*%
G36*
X303656Y356361D02*
X303656Y356361D01*
X303656Y367539D01*
X308960Y367539D01*
X308757Y366522D01*
X308298Y365412D01*
X307631Y364413D01*
X306782Y363564D01*
X305783Y362897D01*
X305194Y362653D01*
X305133Y362616D01*
X305068Y362586D01*
X305029Y362551D01*
X304985Y362524D01*
X304939Y362469D01*
X304887Y362420D01*
X304861Y362374D01*
X304828Y362334D01*
X304803Y362267D01*
X304768Y362204D01*
X304759Y362153D01*
X304740Y362105D01*
X304737Y362033D01*
X304724Y361962D01*
X304732Y361911D01*
X304730Y361859D01*
X304750Y361790D01*
X304760Y361719D01*
X304784Y361673D01*
X304798Y361623D01*
X304839Y361564D01*
X304872Y361500D01*
X304909Y361463D01*
X304938Y361421D01*
X304996Y361378D01*
X305047Y361328D01*
X305110Y361293D01*
X305136Y361274D01*
X305158Y361267D01*
X305194Y361247D01*
X305783Y361003D01*
X306782Y360336D01*
X307631Y359487D01*
X308298Y358488D01*
X308757Y357378D01*
X308960Y356361D01*
X303656Y356361D01*
G37*
%LPD*%
%LPC*%
G36*
X385730Y343661D02*
X385730Y343661D01*
X385933Y344678D01*
X386392Y345788D01*
X387059Y346787D01*
X387908Y347636D01*
X388907Y348303D01*
X389496Y348547D01*
X389557Y348584D01*
X389622Y348614D01*
X389661Y348649D01*
X389705Y348676D01*
X389751Y348732D01*
X389803Y348780D01*
X389828Y348826D01*
X389862Y348866D01*
X389887Y348933D01*
X389922Y348996D01*
X389931Y349047D01*
X389950Y349095D01*
X389953Y349167D01*
X389966Y349238D01*
X389958Y349289D01*
X389960Y349341D01*
X389940Y349410D01*
X389930Y349481D01*
X389906Y349527D01*
X389892Y349577D01*
X389851Y349636D01*
X389818Y349700D01*
X389781Y349737D01*
X389751Y349779D01*
X389694Y349822D01*
X389643Y349872D01*
X389580Y349907D01*
X389554Y349926D01*
X389532Y349933D01*
X389496Y349953D01*
X388907Y350197D01*
X387908Y350864D01*
X387059Y351713D01*
X386392Y352712D01*
X385933Y353822D01*
X385730Y354839D01*
X391034Y354839D01*
X391034Y343661D01*
X385730Y343661D01*
G37*
%LPD*%
%LPC*%
G36*
X338740Y330961D02*
X338740Y330961D01*
X338943Y331978D01*
X339402Y333088D01*
X340069Y334087D01*
X340918Y334936D01*
X341917Y335603D01*
X342506Y335847D01*
X342567Y335884D01*
X342632Y335914D01*
X342671Y335949D01*
X342715Y335976D01*
X342761Y336032D01*
X342813Y336080D01*
X342838Y336126D01*
X342872Y336166D01*
X342897Y336233D01*
X342932Y336296D01*
X342941Y336347D01*
X342960Y336395D01*
X342963Y336467D01*
X342976Y336538D01*
X342968Y336589D01*
X342970Y336641D01*
X342950Y336710D01*
X342940Y336781D01*
X342916Y336827D01*
X342902Y336877D01*
X342861Y336936D01*
X342828Y337000D01*
X342791Y337037D01*
X342762Y337079D01*
X342704Y337122D01*
X342653Y337172D01*
X342590Y337207D01*
X342564Y337226D01*
X342542Y337234D01*
X342506Y337253D01*
X341917Y337497D01*
X340918Y338164D01*
X340069Y339013D01*
X339402Y340012D01*
X338943Y341122D01*
X338740Y342139D01*
X344044Y342139D01*
X344044Y330961D01*
X338740Y330961D01*
G37*
%LPD*%
%LPC*%
G36*
X338740Y318261D02*
X338740Y318261D01*
X338943Y319278D01*
X339402Y320388D01*
X340069Y321387D01*
X340918Y322236D01*
X341917Y322903D01*
X342506Y323147D01*
X342567Y323184D01*
X342632Y323214D01*
X342671Y323249D01*
X342715Y323276D01*
X342761Y323332D01*
X342813Y323380D01*
X342838Y323426D01*
X342872Y323466D01*
X342897Y323533D01*
X342932Y323596D01*
X342941Y323647D01*
X342960Y323695D01*
X342963Y323767D01*
X342976Y323838D01*
X342968Y323889D01*
X342970Y323941D01*
X342950Y324010D01*
X342940Y324081D01*
X342916Y324127D01*
X342902Y324177D01*
X342861Y324236D01*
X342828Y324300D01*
X342791Y324337D01*
X342762Y324379D01*
X342704Y324422D01*
X342653Y324472D01*
X342590Y324507D01*
X342564Y324526D01*
X342542Y324534D01*
X342506Y324553D01*
X341917Y324797D01*
X340918Y325464D01*
X340069Y326313D01*
X339402Y327312D01*
X338943Y328422D01*
X338740Y329439D01*
X344044Y329439D01*
X344044Y318261D01*
X338740Y318261D01*
G37*
%LPD*%
%LPC*%
G36*
X338740Y356361D02*
X338740Y356361D01*
X338943Y357378D01*
X339402Y358488D01*
X340069Y359487D01*
X340918Y360336D01*
X341917Y361003D01*
X342506Y361247D01*
X342567Y361284D01*
X342632Y361314D01*
X342671Y361349D01*
X342715Y361376D01*
X342761Y361432D01*
X342813Y361480D01*
X342838Y361526D01*
X342872Y361566D01*
X342897Y361633D01*
X342932Y361696D01*
X342941Y361747D01*
X342960Y361795D01*
X342963Y361867D01*
X342976Y361938D01*
X342968Y361989D01*
X342970Y362041D01*
X342950Y362110D01*
X342940Y362181D01*
X342916Y362227D01*
X342902Y362277D01*
X342861Y362336D01*
X342828Y362400D01*
X342791Y362437D01*
X342762Y362479D01*
X342704Y362522D01*
X342653Y362572D01*
X342590Y362607D01*
X342564Y362626D01*
X342542Y362634D01*
X342506Y362653D01*
X341917Y362897D01*
X340918Y363564D01*
X340069Y364413D01*
X339402Y365412D01*
X338943Y366522D01*
X338740Y367539D01*
X344044Y367539D01*
X344044Y356361D01*
X338740Y356361D01*
G37*
%LPD*%
%LPC*%
G36*
X296830Y356361D02*
X296830Y356361D01*
X297033Y357378D01*
X297492Y358488D01*
X298159Y359487D01*
X299008Y360336D01*
X300007Y361003D01*
X300596Y361247D01*
X300657Y361284D01*
X300722Y361314D01*
X300761Y361349D01*
X300805Y361376D01*
X300851Y361432D01*
X300903Y361480D01*
X300928Y361526D01*
X300962Y361566D01*
X300987Y361633D01*
X301022Y361696D01*
X301031Y361747D01*
X301050Y361795D01*
X301053Y361867D01*
X301066Y361938D01*
X301058Y361989D01*
X301060Y362041D01*
X301040Y362110D01*
X301030Y362181D01*
X301006Y362227D01*
X300992Y362277D01*
X300951Y362336D01*
X300918Y362400D01*
X300881Y362437D01*
X300852Y362479D01*
X300794Y362522D01*
X300743Y362572D01*
X300680Y362607D01*
X300654Y362626D01*
X300632Y362634D01*
X300596Y362653D01*
X300007Y362897D01*
X299008Y363564D01*
X298159Y364413D01*
X297492Y365412D01*
X297033Y366522D01*
X296830Y367539D01*
X302134Y367539D01*
X302134Y356361D01*
X296830Y356361D01*
G37*
%LPD*%
%LPC*%
G36*
X385730Y318261D02*
X385730Y318261D01*
X385933Y319278D01*
X386392Y320388D01*
X387059Y321387D01*
X387908Y322236D01*
X388907Y322903D01*
X389496Y323147D01*
X389557Y323184D01*
X389622Y323214D01*
X389661Y323249D01*
X389705Y323276D01*
X389751Y323332D01*
X389803Y323380D01*
X389828Y323426D01*
X389862Y323466D01*
X389887Y323533D01*
X389922Y323596D01*
X389931Y323647D01*
X389950Y323695D01*
X389953Y323767D01*
X389966Y323838D01*
X389958Y323889D01*
X389960Y323941D01*
X389940Y324010D01*
X389930Y324081D01*
X389906Y324127D01*
X389892Y324177D01*
X389851Y324236D01*
X389818Y324300D01*
X389781Y324337D01*
X389752Y324379D01*
X389694Y324422D01*
X389643Y324472D01*
X389580Y324507D01*
X389554Y324526D01*
X389532Y324534D01*
X389496Y324553D01*
X388907Y324797D01*
X387908Y325464D01*
X387059Y326313D01*
X386392Y327312D01*
X385933Y328422D01*
X385730Y329439D01*
X391034Y329439D01*
X391034Y318261D01*
X385730Y318261D01*
G37*
%LPD*%
%LPC*%
G36*
X338740Y343661D02*
X338740Y343661D01*
X338943Y344678D01*
X339402Y345788D01*
X340069Y346787D01*
X340918Y347636D01*
X341917Y348303D01*
X342506Y348547D01*
X342567Y348584D01*
X342632Y348614D01*
X342671Y348649D01*
X342715Y348676D01*
X342761Y348731D01*
X342813Y348780D01*
X342839Y348826D01*
X342872Y348866D01*
X342897Y348933D01*
X342932Y348996D01*
X342941Y349047D01*
X342960Y349095D01*
X342963Y349167D01*
X342976Y349238D01*
X342968Y349289D01*
X342970Y349341D01*
X342950Y349410D01*
X342940Y349481D01*
X342916Y349527D01*
X342902Y349577D01*
X342861Y349636D01*
X342828Y349700D01*
X342791Y349737D01*
X342762Y349779D01*
X342704Y349822D01*
X342653Y349872D01*
X342590Y349907D01*
X342564Y349926D01*
X342542Y349933D01*
X342506Y349953D01*
X341917Y350197D01*
X340918Y350864D01*
X340069Y351713D01*
X339402Y352712D01*
X338943Y353822D01*
X338740Y354839D01*
X344044Y354839D01*
X344044Y343661D01*
X338740Y343661D01*
G37*
%LPD*%
%LPC*%
G36*
X385730Y330961D02*
X385730Y330961D01*
X385933Y331978D01*
X386392Y333088D01*
X387059Y334087D01*
X387908Y334936D01*
X388907Y335603D01*
X389496Y335847D01*
X389557Y335884D01*
X389622Y335914D01*
X389661Y335949D01*
X389705Y335976D01*
X389751Y336031D01*
X389803Y336080D01*
X389829Y336126D01*
X389862Y336166D01*
X389887Y336233D01*
X389922Y336296D01*
X389931Y336347D01*
X389950Y336395D01*
X389953Y336467D01*
X389966Y336538D01*
X389958Y336589D01*
X389960Y336641D01*
X389940Y336710D01*
X389930Y336781D01*
X389906Y336827D01*
X389892Y336877D01*
X389851Y336936D01*
X389818Y337000D01*
X389781Y337037D01*
X389752Y337079D01*
X389694Y337122D01*
X389643Y337172D01*
X389580Y337207D01*
X389554Y337226D01*
X389532Y337233D01*
X389496Y337253D01*
X388907Y337497D01*
X387908Y338164D01*
X387059Y339013D01*
X386392Y340012D01*
X385933Y341122D01*
X385730Y342139D01*
X391034Y342139D01*
X391034Y330961D01*
X385730Y330961D01*
G37*
%LPD*%
%LPC*%
G36*
X345566Y369061D02*
X345566Y369061D01*
X345566Y374365D01*
X346583Y374162D01*
X347693Y373703D01*
X348691Y373036D01*
X349347Y372380D01*
X349363Y372369D01*
X349375Y372353D01*
X349462Y372297D01*
X349546Y372237D01*
X349565Y372231D01*
X349582Y372220D01*
X349683Y372195D01*
X349782Y372164D01*
X349801Y372165D01*
X349821Y372160D01*
X349924Y372168D01*
X350027Y372171D01*
X350046Y372178D01*
X350066Y372179D01*
X350161Y372220D01*
X350258Y372255D01*
X350274Y372268D01*
X350292Y372276D01*
X350423Y372380D01*
X351078Y373036D01*
X352077Y373703D01*
X353187Y374162D01*
X354204Y374365D01*
X354204Y369061D01*
X345566Y369061D01*
G37*
%LPD*%
%LPC*%
G36*
X345566Y316739D02*
X345566Y316739D01*
X354204Y316739D01*
X354204Y311435D01*
X353187Y311638D01*
X352077Y312097D01*
X351079Y312764D01*
X350423Y313420D01*
X350407Y313431D01*
X350395Y313447D01*
X350308Y313503D01*
X350224Y313563D01*
X350205Y313569D01*
X350188Y313580D01*
X350087Y313605D01*
X349988Y313636D01*
X349969Y313635D01*
X349949Y313640D01*
X349846Y313632D01*
X349743Y313629D01*
X349724Y313622D01*
X349704Y313621D01*
X349609Y313580D01*
X349512Y313545D01*
X349496Y313532D01*
X349478Y313524D01*
X349347Y313420D01*
X348692Y312764D01*
X347693Y312097D01*
X346583Y311638D01*
X345566Y311435D01*
X345566Y316739D01*
G37*
%LPD*%
%LPC*%
G36*
X303656Y330961D02*
X303656Y330961D01*
X303656Y336265D01*
X304673Y336062D01*
X305783Y335603D01*
X306782Y334936D01*
X307631Y334087D01*
X308298Y333088D01*
X308757Y331978D01*
X308960Y330961D01*
X303656Y330961D01*
G37*
%LPD*%
%LPC*%
G36*
X355726Y369061D02*
X355726Y369061D01*
X355726Y374365D01*
X356743Y374162D01*
X357853Y373703D01*
X358852Y373036D01*
X359701Y372187D01*
X360368Y371188D01*
X360827Y370078D01*
X361030Y369061D01*
X355726Y369061D01*
G37*
%LPD*%
%LPC*%
G36*
X303656Y369061D02*
X303656Y369061D01*
X303656Y374365D01*
X304673Y374162D01*
X305783Y373703D01*
X306782Y373036D01*
X307631Y372187D01*
X308298Y371188D01*
X308757Y370078D01*
X308960Y369061D01*
X303656Y369061D01*
G37*
%LPD*%
%LPC*%
G36*
X392556Y356361D02*
X392556Y356361D01*
X392556Y361665D01*
X393573Y361462D01*
X394683Y361003D01*
X395682Y360336D01*
X396531Y359487D01*
X397198Y358488D01*
X397657Y357378D01*
X397860Y356361D01*
X392556Y356361D01*
G37*
%LPD*%
%LPC*%
G36*
X385730Y356361D02*
X385730Y356361D01*
X385933Y357378D01*
X386392Y358488D01*
X387059Y359487D01*
X387908Y360336D01*
X388907Y361003D01*
X390017Y361462D01*
X391034Y361665D01*
X391034Y356361D01*
X385730Y356361D01*
G37*
%LPD*%
%LPC*%
G36*
X338740Y369061D02*
X338740Y369061D01*
X338943Y370078D01*
X339402Y371188D01*
X340069Y372187D01*
X340918Y373036D01*
X341917Y373703D01*
X343027Y374162D01*
X344044Y374365D01*
X344044Y369061D01*
X338740Y369061D01*
G37*
%LPD*%
%LPC*%
G36*
X392556Y316739D02*
X392556Y316739D01*
X397860Y316739D01*
X397657Y315722D01*
X397198Y314612D01*
X396531Y313613D01*
X395682Y312764D01*
X394683Y312097D01*
X393573Y311638D01*
X392556Y311435D01*
X392556Y316739D01*
G37*
%LPD*%
%LPC*%
G36*
X296830Y330961D02*
X296830Y330961D01*
X297033Y331978D01*
X297492Y333088D01*
X298159Y334087D01*
X299008Y334936D01*
X300007Y335603D01*
X301117Y336062D01*
X302134Y336265D01*
X302134Y330961D01*
X296830Y330961D01*
G37*
%LPD*%
%LPC*%
G36*
X303656Y354839D02*
X303656Y354839D01*
X308960Y354839D01*
X308757Y353822D01*
X308298Y352712D01*
X307631Y351713D01*
X306782Y350864D01*
X305783Y350197D01*
X304673Y349738D01*
X303656Y349535D01*
X303656Y354839D01*
G37*
%LPD*%
%LPC*%
G36*
X303656Y329439D02*
X303656Y329439D01*
X308960Y329439D01*
X308757Y328422D01*
X308298Y327312D01*
X307631Y326313D01*
X306782Y325464D01*
X305783Y324797D01*
X304673Y324338D01*
X303656Y324135D01*
X303656Y329439D01*
G37*
%LPD*%
%LPC*%
G36*
X355726Y316739D02*
X355726Y316739D01*
X361030Y316739D01*
X360827Y315722D01*
X360368Y314612D01*
X359701Y313613D01*
X358852Y312764D01*
X357853Y312097D01*
X356743Y311638D01*
X355726Y311435D01*
X355726Y316739D01*
G37*
%LPD*%
%LPC*%
G36*
X296830Y369061D02*
X296830Y369061D01*
X297033Y370078D01*
X297492Y371188D01*
X298159Y372187D01*
X299008Y373036D01*
X300007Y373703D01*
X301117Y374162D01*
X302134Y374365D01*
X302134Y369061D01*
X296830Y369061D01*
G37*
%LPD*%
%LPC*%
G36*
X390017Y311638D02*
X390017Y311638D01*
X388907Y312097D01*
X387908Y312764D01*
X387059Y313613D01*
X386392Y314612D01*
X385933Y315722D01*
X385730Y316739D01*
X391034Y316739D01*
X391034Y311435D01*
X390017Y311638D01*
G37*
%LPD*%
%LPC*%
G36*
X301117Y349738D02*
X301117Y349738D01*
X300007Y350197D01*
X299008Y350864D01*
X298159Y351713D01*
X297492Y352712D01*
X297033Y353822D01*
X296830Y354839D01*
X302134Y354839D01*
X302134Y349535D01*
X301117Y349738D01*
G37*
%LPD*%
%LPC*%
G36*
X343027Y311638D02*
X343027Y311638D01*
X341917Y312097D01*
X340918Y312764D01*
X340069Y313613D01*
X339402Y314612D01*
X338943Y315722D01*
X338740Y316739D01*
X344044Y316739D01*
X344044Y311435D01*
X343027Y311638D01*
G37*
%LPD*%
%LPC*%
G36*
X301117Y324338D02*
X301117Y324338D01*
X300007Y324797D01*
X299008Y325464D01*
X298159Y326313D01*
X297492Y327312D01*
X297033Y328422D01*
X296830Y329439D01*
X302134Y329439D01*
X302134Y324135D01*
X301117Y324338D01*
G37*
%LPD*%
%LPC*%
G36*
X615949Y415924D02*
X615949Y415924D01*
X615949Y415926D01*
X615951Y415926D01*
X615951Y415924D01*
X615949Y415924D01*
G37*
%LPD*%
%LPC*%
G36*
X615949Y253999D02*
X615949Y253999D01*
X615949Y254001D01*
X615951Y254001D01*
X615951Y253999D01*
X615949Y253999D01*
G37*
%LPD*%
%LPC*%
G36*
X617219Y31114D02*
X617219Y31114D01*
X617219Y31116D01*
X617221Y31116D01*
X617221Y31114D01*
X617219Y31114D01*
G37*
%LPD*%
%LPC*%
G36*
X615949Y466724D02*
X615949Y466724D01*
X615949Y466726D01*
X615951Y466726D01*
X615951Y466724D01*
X615949Y466724D01*
G37*
%LPD*%
%LPC*%
G36*
X617219Y329564D02*
X617219Y329564D01*
X617219Y329566D01*
X617221Y329566D01*
X617221Y329564D01*
X617219Y329564D01*
G37*
%LPD*%
D10*
X615950Y415925D03*
X615950Y390525D03*
D11*
X583946Y682117D03*
X583946Y612013D03*
D10*
X617220Y329565D03*
X617220Y304165D03*
X615950Y254000D03*
X615950Y228600D03*
X617220Y31115D03*
X617220Y56515D03*
X617220Y81915D03*
X617220Y107315D03*
X617220Y132715D03*
X617220Y158115D03*
X617220Y183515D03*
D12*
X302895Y368300D03*
X302895Y355600D03*
X302895Y330200D03*
X344805Y368300D03*
X354965Y368300D03*
X344805Y355600D03*
X354965Y355600D03*
X354965Y342900D03*
X344805Y342900D03*
X354965Y330200D03*
X344805Y330200D03*
X354965Y317500D03*
X344805Y317500D03*
X391795Y355600D03*
X391795Y342900D03*
X391795Y330200D03*
X391795Y317500D03*
D10*
X615950Y492125D03*
X615950Y466725D03*
D13*
X409575Y406400D03*
X409575Y396875D03*
X409575Y415925D03*
D14*
X520700Y710819D03*
X520700Y682879D03*
X532900Y468219D03*
X469900Y419100D03*
X488521Y403225D03*
X451240Y393700D03*
X508000Y314715D03*
X575700Y406400D03*
D15*
X311150Y92075D03*
X261375Y365125D03*
X285750Y279400D03*
X285750Y288925D03*
X285750Y269875D03*
X342900Y279400D03*
X342900Y288925D03*
X342900Y269875D03*
X384175Y184150D03*
X318770Y15875D03*
X396875Y69850D03*
X454025Y63500D03*
X473075Y63500D03*
X508000Y66675D03*
X511175Y161925D03*
X425450Y133350D03*
D13*
X355600Y406400D03*
X355600Y415925D03*
X355600Y396875D03*
X476802Y369653D03*
D15*
X412750Y127000D03*
D16*
X406400Y120650D01*
X406400Y76200D01*
D15*
X406400Y76200D03*
M02*
