G04 EAGLE Gerber RS-274X export*
G75*
%MOMM*%
%FSLAX34Y34*%
%LPD*%
%INComponent side*%
%IPPOS*%
%AMOC8*
5,1,8,0,0,1.08239X$1,22.5*%
G01*
%ADD10R,1.000000X1.100000*%
%ADD11R,1.100000X1.000000*%
%ADD12C,1.879600*%
%ADD13R,2.311400X2.006600*%
%ADD14R,2.311400X2.209800*%
%ADD15C,2.552700*%
%ADD16R,2.794000X2.590800*%
%ADD17R,2.311400X2.794000*%
%ADD18R,1.000000X1.050000*%
%ADD19R,1.050000X2.200000*%
%ADD20C,0.465000*%
%ADD21C,0.457600*%
%ADD22R,2.160000X0.760000*%
%ADD23C,0.711200*%
%ADD24R,1.981200X0.558800*%
%ADD25R,0.406800X1.469200*%
%ADD26R,1.473200X3.200400*%
%ADD27R,1.320800X0.558800*%
%ADD28C,0.762000*%
%ADD29C,0.756400*%
%ADD30C,0.609600*%
%ADD31C,0.406400*%
%ADD32C,0.508000*%
%ADD33C,1.006400*%
%ADD34C,0.856400*%
%ADD35C,1.016000*%
%ADD36C,0.965200*%
%ADD37C,1.117600*%

G36*
X394400Y313067D02*
X394400Y313067D01*
X394466Y313069D01*
X394509Y313087D01*
X394556Y313095D01*
X394613Y313129D01*
X394673Y313154D01*
X394708Y313185D01*
X394749Y313210D01*
X394791Y313261D01*
X394839Y313305D01*
X394861Y313347D01*
X394890Y313384D01*
X394911Y313446D01*
X394942Y313505D01*
X394950Y313559D01*
X394962Y313596D01*
X394961Y313636D01*
X394969Y313690D01*
X394969Y359410D01*
X394958Y359475D01*
X394956Y359541D01*
X394938Y359584D01*
X394930Y359631D01*
X394896Y359688D01*
X394871Y359748D01*
X394840Y359783D01*
X394815Y359824D01*
X394764Y359866D01*
X394720Y359914D01*
X394678Y359936D01*
X394641Y359965D01*
X394579Y359986D01*
X394520Y360017D01*
X394466Y360025D01*
X394429Y360037D01*
X394389Y360036D01*
X394335Y360044D01*
X359409Y360044D01*
X359409Y372110D01*
X359398Y372175D01*
X359396Y372241D01*
X359378Y372284D01*
X359370Y372331D01*
X359336Y372388D01*
X359311Y372448D01*
X359280Y372483D01*
X359255Y372524D01*
X359204Y372566D01*
X359160Y372614D01*
X359118Y372636D01*
X359081Y372665D01*
X359019Y372686D01*
X358960Y372717D01*
X358906Y372725D01*
X358869Y372737D01*
X358829Y372736D01*
X358775Y372744D01*
X299085Y372744D01*
X299020Y372733D01*
X298954Y372731D01*
X298911Y372713D01*
X298864Y372705D01*
X298807Y372671D01*
X298747Y372646D01*
X298712Y372615D01*
X298671Y372590D01*
X298630Y372539D01*
X298581Y372495D01*
X298559Y372453D01*
X298530Y372416D01*
X298509Y372354D01*
X298478Y372295D01*
X298470Y372241D01*
X298458Y372204D01*
X298459Y372164D01*
X298451Y372110D01*
X298451Y351790D01*
X298462Y351725D01*
X298464Y351659D01*
X298482Y351616D01*
X298490Y351569D01*
X298524Y351512D01*
X298549Y351452D01*
X298580Y351417D01*
X298605Y351376D01*
X298656Y351335D01*
X298700Y351286D01*
X298742Y351264D01*
X298779Y351235D01*
X298841Y351214D01*
X298900Y351183D01*
X298954Y351175D01*
X298991Y351163D01*
X299031Y351164D01*
X299085Y351156D01*
X335281Y351156D01*
X335281Y334644D01*
X299085Y334644D01*
X299020Y334633D01*
X298954Y334631D01*
X298911Y334613D01*
X298864Y334605D01*
X298807Y334571D01*
X298747Y334546D01*
X298712Y334515D01*
X298671Y334490D01*
X298630Y334439D01*
X298581Y334395D01*
X298559Y334353D01*
X298530Y334316D01*
X298509Y334254D01*
X298478Y334195D01*
X298470Y334141D01*
X298458Y334104D01*
X298458Y334082D01*
X298458Y334080D01*
X298458Y334060D01*
X298451Y334010D01*
X298451Y326390D01*
X298462Y326325D01*
X298464Y326259D01*
X298482Y326216D01*
X298490Y326169D01*
X298524Y326112D01*
X298549Y326052D01*
X298580Y326017D01*
X298605Y325976D01*
X298656Y325935D01*
X298700Y325886D01*
X298742Y325864D01*
X298779Y325835D01*
X298841Y325814D01*
X298900Y325783D01*
X298954Y325775D01*
X298991Y325763D01*
X299031Y325764D01*
X299085Y325756D01*
X335281Y325756D01*
X335281Y313690D01*
X335292Y313625D01*
X335294Y313559D01*
X335312Y313516D01*
X335320Y313469D01*
X335354Y313412D01*
X335379Y313352D01*
X335410Y313317D01*
X335435Y313276D01*
X335486Y313235D01*
X335530Y313186D01*
X335572Y313164D01*
X335609Y313135D01*
X335671Y313114D01*
X335730Y313083D01*
X335784Y313075D01*
X335821Y313063D01*
X335861Y313064D01*
X335915Y313056D01*
X394335Y313056D01*
X394400Y313067D01*
G37*
D10*
X592700Y390525D03*
X575700Y390525D03*
D11*
X469900Y453000D03*
X469900Y436000D03*
X279400Y322825D03*
X279400Y305825D03*
D10*
X297425Y133350D03*
X280425Y133350D03*
D11*
X266700Y99450D03*
X266700Y116450D03*
X384175Y153425D03*
X384175Y170425D03*
D10*
X456175Y133350D03*
X439175Y133350D03*
D12*
X615950Y415925D03*
X615950Y390525D03*
D13*
X544570Y710819D03*
D14*
X544570Y682879D03*
D13*
X623570Y692023D03*
D14*
X623570Y664083D03*
D15*
X583946Y682117D03*
X583946Y612013D03*
D16*
X591690Y549021D03*
D17*
X544570Y596549D03*
D12*
X617220Y329565D03*
X617220Y304165D03*
X615950Y254000D03*
X615950Y228600D03*
D18*
X314325Y294650D03*
D19*
X329075Y279400D03*
X299575Y279400D03*
D18*
X381000Y391150D03*
D19*
X366250Y406400D03*
X395750Y406400D03*
D12*
X617220Y31115D03*
X617220Y56515D03*
X617220Y81915D03*
X617220Y107315D03*
X617220Y132715D03*
X617220Y158115D03*
X617220Y183515D03*
D10*
X261375Y342900D03*
X278375Y342900D03*
D11*
X266700Y270900D03*
X266700Y287900D03*
X241300Y116450D03*
X241300Y99450D03*
D10*
X354575Y69850D03*
X337575Y69850D03*
D20*
X526425Y458750D02*
X539375Y458750D01*
X539375Y454100D01*
X526425Y454100D01*
X526425Y458750D01*
X526425Y458517D02*
X539375Y458517D01*
X539375Y481750D02*
X526425Y481750D01*
X539375Y481750D02*
X539375Y477100D01*
X526425Y477100D01*
X526425Y481750D01*
X526425Y481517D02*
X539375Y481517D01*
X539375Y504750D02*
X526425Y504750D01*
X539375Y504750D02*
X539375Y500100D01*
X526425Y500100D01*
X526425Y504750D01*
X526425Y504517D02*
X539375Y504517D01*
D21*
X463888Y493087D02*
X463888Y465763D01*
X463888Y493087D02*
X476912Y493087D01*
X476912Y465763D01*
X463888Y465763D01*
X463888Y470110D02*
X476912Y470110D01*
X476912Y474457D02*
X463888Y474457D01*
X463888Y478804D02*
X476912Y478804D01*
X476912Y483151D02*
X463888Y483151D01*
X463888Y487498D02*
X476912Y487498D01*
X476912Y491845D02*
X463888Y491845D01*
D22*
X320675Y368300D03*
X320675Y355600D03*
X320675Y342900D03*
X320675Y330200D03*
X320675Y317500D03*
X374275Y317500D03*
X374275Y330200D03*
X374275Y342900D03*
X374275Y355600D03*
X374275Y368300D03*
D23*
X302895Y368300D03*
X302895Y355600D03*
X302895Y330200D03*
X344805Y368300D03*
X354965Y368300D03*
X344805Y355600D03*
X354965Y355600D03*
X354965Y342900D03*
X344805Y342900D03*
X354965Y330200D03*
X344805Y330200D03*
X354965Y317500D03*
X344805Y317500D03*
X391795Y355600D03*
X391795Y342900D03*
X391795Y330200D03*
X391795Y317500D03*
D24*
X330962Y130175D03*
X330962Y117475D03*
X330962Y104775D03*
X330962Y92075D03*
X380238Y92075D03*
X380238Y104775D03*
X380238Y117475D03*
X380238Y130175D03*
D25*
X530675Y146188D03*
X524175Y146188D03*
X517675Y146188D03*
X511175Y146188D03*
X504675Y146188D03*
X498175Y146188D03*
X491675Y146188D03*
X491675Y88762D03*
X498175Y88762D03*
X504675Y88762D03*
X511175Y88762D03*
X517675Y88762D03*
X524175Y88762D03*
X530675Y88762D03*
D12*
X615950Y492125D03*
X615950Y466725D03*
D11*
X419100Y58665D03*
X419100Y41665D03*
X318770Y45965D03*
X318770Y28965D03*
X454025Y93590D03*
X454025Y76590D03*
X431165Y76590D03*
X431165Y93590D03*
D26*
X464820Y564388D03*
X464820Y620522D03*
D27*
X489966Y379705D03*
X489966Y370205D03*
X489966Y360705D03*
X515874Y360705D03*
X515874Y379705D03*
D10*
X468240Y379095D03*
X451240Y379095D03*
X519040Y403225D03*
X502040Y403225D03*
D11*
X525145Y331715D03*
X525145Y314715D03*
D10*
X378850Y57150D03*
X395850Y57150D03*
D11*
X476250Y93590D03*
X476250Y76590D03*
D28*
X409575Y406400D02*
X395750Y406400D01*
D29*
X409575Y406400D03*
D28*
X405275Y396875D02*
X395750Y406400D01*
X405275Y396875D02*
X409575Y396875D01*
D29*
X409575Y396875D03*
D28*
X395750Y406400D02*
X405275Y415925D01*
X409575Y415925D01*
D29*
X409575Y415925D03*
D28*
X299575Y281450D02*
X299575Y279400D01*
D30*
X302895Y368300D02*
X320675Y368300D01*
X320675Y355600D02*
X302895Y355600D01*
X302895Y330200D02*
X320675Y330200D01*
D31*
X504825Y88912D02*
X504675Y88762D01*
D32*
X520700Y710819D02*
X544570Y710819D01*
D33*
X520700Y710819D03*
D32*
X520700Y682879D02*
X544570Y682879D01*
D33*
X520700Y682879D03*
D32*
X532900Y468219D02*
X532900Y456425D01*
D33*
X532900Y468219D03*
D32*
X469900Y436000D02*
X469900Y419100D01*
D33*
X469900Y419100D03*
D32*
X488521Y403225D02*
X502040Y403225D01*
D33*
X488521Y403225D03*
D32*
X451240Y393700D02*
X451240Y379095D01*
D33*
X451240Y393700D03*
D32*
X508000Y314715D02*
X525145Y314715D01*
D33*
X508000Y314715D03*
D32*
X575700Y390525D02*
X575700Y406400D01*
D33*
X575700Y406400D03*
D31*
X330962Y92075D02*
X311150Y92075D01*
D34*
X311150Y92075D03*
D35*
X261375Y342900D02*
X261375Y365125D01*
D34*
X261375Y365125D03*
D30*
X285750Y279400D02*
X299575Y279400D01*
D34*
X285750Y279400D03*
D30*
X290050Y288925D02*
X299575Y279400D01*
X290050Y288925D02*
X285750Y288925D01*
D34*
X285750Y288925D03*
D30*
X299575Y279400D02*
X290050Y269875D01*
X285750Y269875D01*
D34*
X285750Y269875D03*
D30*
X329075Y279400D02*
X342900Y279400D01*
D34*
X342900Y279400D03*
D30*
X338600Y288925D02*
X329075Y279400D01*
X338600Y288925D02*
X342900Y288925D01*
D34*
X342900Y288925D03*
D30*
X329075Y279400D02*
X338600Y269875D01*
X342900Y269875D01*
D34*
X342900Y269875D03*
D30*
X384175Y184150D02*
X384175Y170425D01*
D34*
X384175Y184150D03*
D31*
X318770Y28965D02*
X318770Y15875D01*
D34*
X318770Y15875D03*
D31*
X396875Y58175D02*
X396875Y69850D01*
X396875Y58175D02*
X395850Y57150D01*
D34*
X396875Y69850D03*
D31*
X454025Y63500D02*
X454025Y76590D01*
D34*
X454025Y63500D03*
D31*
X476250Y66675D02*
X476250Y76590D01*
X476250Y66675D02*
X473075Y63500D01*
D34*
X473075Y63500D03*
D31*
X504675Y73175D02*
X508000Y69850D01*
X508000Y66675D01*
D34*
X508000Y66675D03*
D31*
X504675Y73175D02*
X504675Y88762D01*
X511175Y146188D02*
X511175Y161925D01*
D34*
X511175Y161925D03*
D31*
X439175Y133350D02*
X425450Y133350D01*
D34*
X425450Y133350D03*
D28*
X366250Y406400D02*
X355600Y406400D01*
D29*
X355600Y406400D03*
D28*
X356725Y415925D02*
X366250Y406400D01*
X356725Y415925D02*
X355600Y415925D01*
D29*
X355600Y415925D03*
D28*
X366250Y406400D02*
X356725Y396875D01*
X355600Y396875D01*
D29*
X355600Y396875D03*
D28*
X374275Y355600D02*
X374275Y342900D01*
X374275Y330200D01*
X374275Y317500D01*
X391795Y317500D01*
D31*
X489414Y369653D02*
X489966Y370205D01*
X489414Y369653D02*
X476802Y369653D01*
D29*
X476802Y369653D03*
D30*
X592700Y390525D02*
X615950Y390525D01*
X617220Y304165D02*
X635000Y304165D01*
X641350Y310515D01*
X641350Y371475D02*
X622300Y390525D01*
X615950Y390525D01*
X641350Y371475D02*
X641350Y310515D01*
X641350Y231775D02*
X635000Y225425D01*
X619125Y225425D01*
X615950Y228600D01*
X641350Y231775D02*
X641350Y310515D01*
X565150Y502425D02*
X532900Y502425D01*
X565150Y502425D02*
X592700Y474875D01*
X592700Y390525D01*
X590550Y183515D02*
X617220Y183515D01*
X590550Y183515D02*
X552450Y221615D01*
X552450Y473075D02*
X546100Y479425D01*
X532900Y479425D01*
X552450Y438150D02*
X552450Y221615D01*
X552450Y438150D02*
X552450Y473075D01*
X532900Y479425D02*
X470400Y479425D01*
D32*
X489966Y379705D02*
X489356Y379095D01*
X479425Y379095D01*
X468240Y379095D01*
X468240Y365125D01*
X472660Y360705D01*
X489966Y360705D01*
X504825Y438150D02*
X552450Y438150D01*
X504825Y438150D02*
X479425Y412750D01*
X479425Y379095D01*
D30*
X470400Y453500D02*
X470400Y479425D01*
D31*
X470400Y453500D02*
X469900Y453000D01*
D36*
X314325Y314960D02*
X314325Y294650D01*
D28*
X314325Y314960D02*
X316865Y317500D01*
X320675Y317500D01*
D36*
X381000Y368935D02*
X381000Y391150D01*
D28*
X381000Y368935D02*
X380365Y368300D01*
X374275Y368300D01*
D37*
X320675Y342900D02*
X278375Y342900D01*
D28*
X279400Y341875D01*
X279400Y322825D01*
X279400Y305825D02*
X273050Y305825D01*
X266700Y299475D01*
X266700Y287900D01*
D31*
X378381Y57619D02*
X378850Y57150D01*
X378381Y57619D02*
X334277Y57619D01*
X303312Y88828D02*
X303312Y95322D01*
X312765Y104775D01*
X330962Y104775D01*
X318770Y73126D02*
X334277Y57619D01*
X318770Y73370D02*
X303312Y88828D01*
X318770Y73370D02*
X318770Y73126D01*
X318770Y45965D01*
X335035Y45965D01*
X339335Y41665D02*
X419100Y41665D01*
X339335Y41665D02*
X335035Y45965D01*
X280425Y140725D02*
X292100Y152400D01*
X330200Y152400D01*
X344424Y87808D02*
X336550Y79934D01*
X344424Y87808D02*
X344424Y138176D01*
X280425Y140725D02*
X280425Y133350D01*
X330200Y152400D02*
X344424Y138176D01*
X336550Y79934D02*
X336550Y70875D01*
X337575Y69850D01*
X429650Y92075D02*
X431165Y93590D01*
X429650Y92075D02*
X380238Y92075D01*
X431165Y93590D02*
X454025Y93590D01*
X476250Y93590D01*
X530675Y155390D02*
X533400Y158115D01*
X530675Y155390D02*
X530675Y146188D01*
X533400Y158115D02*
X617220Y158115D01*
X617220Y132715D02*
X527050Y132715D01*
X524175Y135590D01*
X524175Y146188D01*
X544547Y107315D02*
X617220Y107315D01*
X517675Y136525D02*
X517675Y146188D01*
X517675Y134187D02*
X544547Y107315D01*
X517675Y134187D02*
X517675Y146188D01*
X498475Y89062D02*
X498175Y88762D01*
X469900Y559308D02*
X464820Y564388D01*
X469900Y559308D02*
X469900Y557770D01*
D30*
X464820Y564388D02*
X464820Y542925D01*
X483870Y523875D01*
X590550Y523875D02*
X615950Y498475D01*
X615950Y492125D01*
X590550Y523875D02*
X483870Y523875D01*
D31*
X498175Y44750D02*
X527558Y15367D01*
X498175Y44750D02*
X498175Y88762D01*
X498175Y104775D01*
X485475Y117475D01*
X380238Y117475D01*
X663575Y473075D02*
X644525Y492125D01*
X663575Y473075D02*
X663575Y22225D01*
X656717Y15367D01*
X644525Y492125D02*
X615950Y492125D01*
X656717Y15367D02*
X527558Y15367D01*
X491675Y88762D02*
X491675Y98875D01*
X485775Y104775D01*
X380238Y104775D01*
X354575Y98425D02*
X354575Y69850D01*
X354575Y98425D02*
X360925Y104775D01*
X380238Y104775D01*
X524175Y75900D02*
X533400Y66675D01*
X604520Y81915D02*
X617220Y81915D01*
X604520Y81915D02*
X589280Y66675D01*
X533400Y66675D01*
X524175Y75900D02*
X524175Y88762D01*
X517675Y88762D02*
X517675Y73025D01*
X534185Y56515D01*
X617220Y56515D01*
D30*
X384175Y153425D02*
X383413Y152663D01*
D32*
X511175Y130175D02*
X530675Y110675D01*
X511175Y130175D02*
X488950Y130175D01*
X485775Y133350D02*
X482600Y136525D01*
X485775Y133350D02*
X488950Y130175D01*
X482600Y136525D02*
X482600Y161925D01*
X482600Y327025D01*
X504825Y349250D01*
X504825Y377825D01*
X506705Y379705D02*
X515874Y379705D01*
X530675Y110675D02*
X530675Y88762D01*
X504825Y377825D02*
X506705Y379705D01*
X519040Y403225D02*
X530225Y403225D01*
X536575Y396875D01*
X536575Y384175D01*
X532105Y379705D02*
X515874Y379705D01*
X532105Y379705D02*
X536575Y384175D01*
X485775Y133350D02*
X456175Y133350D01*
D30*
X482600Y161925D02*
X422275Y161925D01*
X412750Y161925D01*
X404250Y153425D01*
X384175Y153425D01*
D31*
X419100Y76590D02*
X431165Y76590D01*
X419100Y76590D02*
X419100Y58665D01*
X396875Y130175D02*
X380238Y130175D01*
X396875Y130175D02*
X403225Y136525D01*
X422275Y155575D01*
X422275Y161925D01*
X403225Y136525D02*
X412750Y127000D01*
D34*
X412750Y127000D03*
X406400Y76200D03*
D31*
X406790Y76590D01*
X419100Y76590D01*
D30*
X623570Y664083D02*
X623570Y692023D01*
X574894Y596549D02*
X544570Y596549D01*
X574894Y596549D02*
X576765Y594678D01*
X577850Y594678D01*
X591690Y580838D01*
X591690Y549021D01*
X591690Y580838D02*
X623570Y612718D01*
X623570Y664083D01*
X476250Y657225D02*
X464820Y645795D01*
X544570Y633355D02*
X544570Y596549D01*
X464820Y620522D02*
X464820Y645795D01*
X476250Y657225D02*
X520700Y657225D01*
X544570Y633355D01*
D28*
X266700Y270900D02*
X266700Y174625D01*
X225425Y133350D01*
X225425Y107950D01*
X233925Y99450D01*
X241300Y99450D01*
X266700Y99450D01*
X273366Y106116D01*
X303542Y117475D02*
X330962Y117475D01*
X292183Y106116D02*
X273366Y106116D01*
X292183Y106116D02*
X303542Y117475D01*
D32*
X515874Y360705D02*
X530225Y360705D01*
X533400Y357530D01*
X533400Y347980D01*
X525145Y339725D02*
X525145Y331715D01*
X525145Y339725D02*
X533400Y347980D01*
D31*
X266700Y116450D02*
X241300Y116450D01*
X327787Y133350D02*
X330962Y130175D01*
X327787Y133350D02*
X297425Y133350D01*
X297425Y121775D02*
X292100Y116450D01*
X297425Y121775D02*
X297425Y133350D01*
X292100Y116450D02*
X266700Y116450D01*
M02*
